<?xml version="1.0" encoding="UTF-8" standalone="no"?>
<!-- Created with Fritzing (http://www.fritzing.org/) -->

<svg
   xmlns:dc="http://purl.org/dc/elements/1.1/"
   xmlns:cc="http://creativecommons.org/ns#"
   xmlns:rdf="http://www.w3.org/1999/02/22-rdf-syntax-ns#"
   xmlns:svg="http://www.w3.org/2000/svg"
   xmlns="http://www.w3.org/2000/svg"
   xmlns:sodipodi="http://sodipodi.sourceforge.net/DTD/sodipodi-0.dtd"
   xmlns:inkscape="http://www.inkscape.org/namespaces/inkscape"
   version="1.2"
   x="0in"
   y="0in"
   width="214.37007"
   height="214.37007"
   viewBox="0 0 171.49606 171.49605"
   id="svg2"
   inkscape:version="0.48.4 r9939"
   sodipodi:docname="LED_Matrix_8x8_RGB_PCB.svg">
  <metadata
     id="metadata128">
    <rdf:RDF>
      <cc:Work
         rdf:about="">
        <dc:format>image/svg+xml</dc:format>
        <dc:type
           rdf:resource="http://purl.org/dc/dcmitype/StillImage" />
        <dc:title />
      </cc:Work>
    </rdf:RDF>
  </metadata>
  <defs
     id="defs126" />
  <sodipodi:namedview
     pagecolor="#ffffff"
     bordercolor="#666666"
     borderopacity="1"
     objecttolerance="10"
     gridtolerance="10"
     guidetolerance="10"
     inkscape:pageopacity="0"
     inkscape:pageshadow="2"
     inkscape:window-width="1400"
     inkscape:window-height="987"
     id="namedview124"
     showgrid="false"
     units="mm"
     inkscape:zoom="2.2891248"
     inkscape:cx="28.640744"
     inkscape:cy="81.456949"
     inkscape:window-x="-8"
     inkscape:window-y="-8"
     inkscape:window-maximized="1"
     inkscape:current-layer="svg2" />
  <g
     id="copper0">
    <g
       id="g4483">
      <g
         id="g4376">
        <rect
           transform="matrix(0,-1,1,0,0,0)"
           style="fill:none;stroke:#ffbf00;stroke-width:1.43999887"
           y="31.957775"
           x="-150.67842"
           id="square"
           width="3.4242611"
           height="3.4242532" />
        <g
           id="g4343">
          <circle
             r="1.7121201"
             id="connector0pin"
             cx="4.3200002"
             cy="4.3200002"
             sodipodi:cx="4.3200002"
             sodipodi:cy="4.3200002"
             sodipodi:rx="1.7121201"
             sodipodi:ry="1.7121201"
             style="fill:none;stroke:#ffbf00;stroke-width:1.44000006"
             d="m 6.0321202,4.3200002 c 0,0.9455778 -0.7665422,1.71212 -1.71212,1.71212 -0.9455778,0 -1.7121201,-0.7665422 -1.7121201,-1.71212 0,-0.9455778 0.7665423,-1.7121201 1.7121201,-1.7121201 0.9455778,0 1.71212,0.7665423 1.71212,1.7121201 z"
             transform="matrix(0,-1.0000003,0.99999803,0,29.34992,153.2863)" />
        </g>
      </g>
      <circle
         d="m 6.0321202,112.32 c 0,0.94558 -0.7665422,1.71212 -1.71212,1.71212 -0.9455778,0 -1.7121201,-0.76654 -1.7121201,-1.71212 0,-0.94558 0.7665423,-1.71212 1.7121201,-1.71212 0.9455778,0 1.71212,0.76654 1.71212,1.71212 z"
         style="fill:none;stroke:#ffbf00;stroke-width:1.44000006"
         sodipodi:ry="1.7121201"
         sodipodi:rx="1.7121201"
         sodipodi:cy="112.32"
         sodipodi:cx="4.3200002"
         cy="112.32"
         cx="4.3200002"
         id="connector15pin"
         r="1.7121201"
         transform="matrix(0,-1,1,0,28.442831,153.2863)" />
      <circle
         transform="matrix(0,-1,1,0,21.303308,153.2863)"
         r="1.7121201"
         id="connector14pin"
         cx="4.3200002"
         cy="112.32"
         sodipodi:cx="4.3200002"
         sodipodi:cy="112.32"
         sodipodi:rx="1.7121201"
         sodipodi:ry="1.7121201"
         style="fill:none;stroke:#ffbf00;stroke-width:1.44000006"
         d="m 6.0321202,112.32 c 0,0.94558 -0.7665422,1.71212 -1.71212,1.71212 -0.9455778,0 -1.7121201,-0.76654 -1.7121201,-1.71212 0,-0.94558 0.7665423,-1.71212 1.7121201,-1.71212 0.9455778,0 1.71212,0.76654 1.71212,1.71212 z" />
      <circle
         d="m 6.0321202,112.32 c 0,0.94558 -0.7665422,1.71212 -1.71212,1.71212 -0.9455778,0 -1.7121201,-0.76654 -1.7121201,-1.71212 0,-0.94558 0.7665423,-1.71212 1.7121201,-1.71212 0.9455778,0 1.71212,0.76654 1.71212,1.71212 z"
         style="fill:none;stroke:#ffbf00;stroke-width:1.44000006"
         sodipodi:ry="1.7121201"
         sodipodi:rx="1.7121201"
         sodipodi:cy="112.32"
         sodipodi:cx="4.3200002"
         cy="112.32"
         cx="4.3200002"
         id="connector13pin"
         r="1.7121201"
         transform="matrix(0,-1,1,0,14.163777,153.2863)" />
      <circle
         transform="matrix(0,-1,1,0,7.0242449,153.2863)"
         r="1.7121201"
         id="connector12pin"
         cx="4.3200002"
         cy="112.32"
         sodipodi:cx="4.3200002"
         sodipodi:cy="112.32"
         sodipodi:rx="1.7121201"
         sodipodi:ry="1.7121201"
         style="fill:none;stroke:#ffbf00;stroke-width:1.44000006"
         d="m 6.0321202,112.32 c 0,0.94558 -0.7665422,1.71212 -1.71212,1.71212 -0.9455778,0 -1.7121201,-0.76654 -1.7121201,-1.71212 0,-0.94558 0.7665423,-1.71212 1.7121201,-1.71212 0.9455778,0 1.71212,0.76654 1.71212,1.71212 z" />
      <circle
         d="m 6.0321202,112.32 c 0,0.94558 -0.7665422,1.71212 -1.71212,1.71212 -0.9455778,0 -1.7121201,-0.76654 -1.7121201,-1.71212 0,-0.94558 0.7665423,-1.71212 1.7121201,-1.71212 0.9455778,0 1.71212,0.76654 1.71212,1.71212 z"
         style="fill:none;stroke:#ffbf00;stroke-width:1.44000006"
         sodipodi:ry="1.7121201"
         sodipodi:rx="1.7121201"
         sodipodi:cy="112.32"
         sodipodi:cx="4.3200002"
         cy="112.32"
         cx="4.3200002"
         id="connector11pin"
         r="1.7121201"
         transform="matrix(0,-1,1,0,-0.1152869,153.2863)" />
      <circle
         transform="matrix(0,-1,1,0,-7.2548065,153.2863)"
         r="1.7121201"
         id="connector10pin"
         cx="4.3200002"
         cy="112.32"
         sodipodi:cx="4.3200002"
         sodipodi:cy="112.32"
         sodipodi:rx="1.7121201"
         sodipodi:ry="1.7121201"
         style="fill:none;stroke:#ffbf00;stroke-width:1.44000006"
         d="m 6.0321202,112.32 c 0,0.94558 -0.7665422,1.71212 -1.71212,1.71212 -0.9455778,0 -1.7121201,-0.76654 -1.7121201,-1.71212 0,-0.94558 0.7665423,-1.71212 1.7121201,-1.71212 0.9455778,0 1.71212,0.76654 1.71212,1.71212 z" />
      <circle
         d="m 6.0321202,112.32 c 0,0.94558 -0.7665422,1.71212 -1.71212,1.71212 -0.9455778,0 -1.7121201,-0.76654 -1.7121201,-1.71212 0,-0.94558 0.7665423,-1.71212 1.7121201,-1.71212 0.9455778,0 1.71212,0.76654 1.71212,1.71212 z"
         style="fill:none;stroke:#ffbf00;stroke-width:1.44000006"
         sodipodi:ry="1.7121201"
         sodipodi:rx="1.7121201"
         sodipodi:cy="112.32"
         sodipodi:cx="4.3200002"
         cy="112.32"
         cx="4.3200002"
         id="connector9pin"
         r="1.7121201"
         transform="matrix(0,-1,1,0,-14.394338,153.2863)" />
      <circle
         transform="matrix(0,-1,1,0,-21.53387,153.2863)"
         r="1.7121201"
         id="connector8pin"
         cx="4.3200002"
         cy="112.32"
         sodipodi:cx="4.3200002"
         sodipodi:cy="112.32"
         sodipodi:rx="1.7121201"
         sodipodi:ry="1.7121201"
         style="fill:none;stroke:#ffbf00;stroke-width:1.44000006"
         d="m 6.0321202,112.32 c 0,0.94558 -0.7665422,1.71212 -1.71212,1.71212 -0.9455778,0 -1.7121201,-0.76654 -1.7121201,-1.71212 0,-0.94558 0.7665423,-1.71212 1.7121201,-1.71212 0.9455778,0 1.71212,0.76654 1.71212,1.71212 z" />
      <circle
         d="m 6.0321202,112.32 c 0,0.94558 -0.7665422,1.71212 -1.71212,1.71212 -0.9455778,0 -1.7121201,-0.76654 -1.7121201,-1.71212 0,-0.94558 0.7665423,-1.71212 1.7121201,-1.71212 0.9455778,0 1.71212,0.76654 1.71212,1.71212 z"
         style="fill:none;stroke:#ffbf00;stroke-width:1.44000006"
         sodipodi:ry="1.7121201"
         sodipodi:rx="1.7121201"
         sodipodi:cy="112.32"
         sodipodi:cx="4.3200002"
         cy="112.32"
         cx="4.3200002"
         id="connector7pin"
         r="1.7121201"
         transform="matrix(0,-1,1,0,-28.673396,153.2863)" />
      <circle
         transform="matrix(0,-1,1,0,-35.812928,153.2863)"
         r="1.7121201"
         id="connector6pin"
         cx="4.3200002"
         cy="112.32"
         sodipodi:cx="4.3200002"
         sodipodi:cy="112.32"
         sodipodi:rx="1.7121201"
         sodipodi:ry="1.7121201"
         style="fill:none;stroke:#ffbf00;stroke-width:1.44000006"
         d="m 6.0321202,112.32 c 0,0.94558 -0.7665422,1.71212 -1.71212,1.71212 -0.9455778,0 -1.7121201,-0.76654 -1.7121201,-1.71212 0,-0.94558 0.7665423,-1.71212 1.7121201,-1.71212 0.9455778,0 1.71212,0.76654 1.71212,1.71212 z" />
      <circle
         d="m 6.0321202,112.32 c 0,0.94558 -0.7665422,1.71212 -1.71212,1.71212 -0.9455778,0 -1.7121201,-0.76654 -1.7121201,-1.71212 0,-0.94558 0.7665423,-1.71212 1.7121201,-1.71212 0.9455778,0 1.71212,0.76654 1.71212,1.71212 z"
         style="fill:none;stroke:#ffbf00;stroke-width:1.44000006"
         sodipodi:ry="1.7121201"
         sodipodi:rx="1.7121201"
         sodipodi:cy="112.32"
         sodipodi:cx="4.3200002"
         cy="112.32"
         cx="4.3200002"
         id="connector5pin"
         r="1.7121201"
         transform="matrix(0,-1,1,0,-42.952453,153.2863)" />
      <circle
         transform="matrix(0,-1,1,0,-50.091985,153.2863)"
         r="1.7121201"
         id="connector4pin"
         cx="4.3200002"
         cy="112.32"
         sodipodi:cx="4.3200002"
         sodipodi:cy="112.32"
         sodipodi:rx="1.7121201"
         sodipodi:ry="1.7121201"
         style="fill:none;stroke:#ffbf00;stroke-width:1.44000006"
         d="m 6.0321202,112.32 c 0,0.94558 -0.7665422,1.71212 -1.71212,1.71212 -0.9455778,0 -1.7121201,-0.76654 -1.7121201,-1.71212 0,-0.94558 0.7665423,-1.71212 1.7121201,-1.71212 0.9455778,0 1.71212,0.76654 1.71212,1.71212 z" />
      <circle
         d="m 6.0321202,112.32 c 0,0.94558 -0.7665422,1.71212 -1.71212,1.71212 -0.9455778,0 -1.7121201,-0.76654 -1.7121201,-1.71212 0,-0.94558 0.7665423,-1.71212 1.7121201,-1.71212 0.9455778,0 1.71212,0.76654 1.71212,1.71212 z"
         style="fill:none;stroke:#ffbf00;stroke-width:1.44000006"
         sodipodi:ry="1.7121201"
         sodipodi:rx="1.7121201"
         sodipodi:cy="112.32"
         sodipodi:cx="4.3200002"
         cy="112.32"
         cx="4.3200002"
         id="connector3pin"
         r="1.7121201"
         transform="matrix(0,-1,1,0,-57.231511,153.2863)" />
      <circle
         transform="matrix(0,-1,1,0,-64.37104,153.2863)"
         r="1.7121201"
         id="connector2pin"
         cx="4.3200002"
         cy="112.32"
         sodipodi:cx="4.3200002"
         sodipodi:cy="112.32"
         sodipodi:rx="1.7121201"
         sodipodi:ry="1.7121201"
         style="fill:none;stroke:#ffbf00;stroke-width:1.44000006"
         d="m 6.0321202,112.32 c 0,0.94558 -0.7665422,1.71212 -1.71212,1.71212 -0.9455778,0 -1.7121201,-0.76654 -1.7121201,-1.71212 0,-0.94558 0.7665423,-1.71212 1.7121201,-1.71212 0.9455778,0 1.71212,0.76654 1.71212,1.71212 z" />
      <circle
         d="m 6.0321202,112.32 c 0,0.94558 -0.7665422,1.71212 -1.71212,1.71212 -0.9455778,0 -1.7121201,-0.76654 -1.7121201,-1.71212 0,-0.94558 0.7665423,-1.71212 1.7121201,-1.71212 0.9455778,0 1.71212,0.76654 1.71212,1.71212 z"
         style="fill:none;stroke:#ffbf00;stroke-width:1.44000006"
         sodipodi:ry="1.7121201"
         sodipodi:rx="1.7121201"
         sodipodi:cy="112.32"
         sodipodi:cx="4.3200002"
         cy="112.32"
         cx="4.3200002"
         id="connector1pin"
         r="1.7121201"
         transform="matrix(0,-1,1,0,-71.51057,153.2863)" />
    </g>
    <g
       transform="translate(0,-130.0819)"
       id="g4506">
      <g
         id="g4510">
        <circle
           r="1.7121201"
           id="connector31pin"
           cx="4.3200002"
           cy="4.3200002"
           sodipodi:cx="4.3200002"
           sodipodi:cy="4.3200002"
           sodipodi:rx="1.7121201"
           sodipodi:ry="1.7121201"
           style="fill:none;stroke:#ffbf00;stroke-width:1.44000006"
           d="m 6.0321202,4.3200002 c 0,0.9455778 -0.7665422,1.71212 -1.71212,1.71212 -0.9455778,0 -1.7121201,-0.7665422 -1.7121201,-1.71212 0,-0.9455778 0.7665423,-1.7121201 1.7121201,-1.7121201 0.9455778,0 1.71212,0.7665423 1.71212,1.7121201 z"
           transform="matrix(0,-1.0000003,0.99999803,0,29.34992,153.2863)" />
      </g>
    </g>
    <circle
       d="m 6.0321202,112.32 c 0,0.94558 -0.7665422,1.71212 -1.71212,1.71212 -0.9455778,0 -1.7121201,-0.76654 -1.7121201,-1.71212 0,-0.94558 0.7665423,-1.71212 1.7121201,-1.71212 0.9455778,0 1.71212,0.76654 1.71212,1.71212 z"
       style="fill:none;stroke:#ffbf00;stroke-width:1.44000006"
       sodipodi:ry="1.7121201"
       sodipodi:rx="1.7121201"
       sodipodi:cy="112.32"
       sodipodi:cx="4.3200002"
       cy="112.32"
       cx="4.3200002"
       id="connector16pin"
       r="1.7121201"
       transform="matrix(0,-1,1,0,28.442831,23.2044)" />
    <circle
       transform="matrix(0,-1,1,0,21.303308,23.2044)"
       r="1.7121201"
       id="connector17pin"
       cx="4.3200002"
       cy="112.32"
       sodipodi:cx="4.3200002"
       sodipodi:cy="112.32"
       sodipodi:rx="1.7121201"
       sodipodi:ry="1.7121201"
       style="fill:none;stroke:#ffbf00;stroke-width:1.44000006"
       d="m 6.0321202,112.32 c 0,0.94558 -0.7665422,1.71212 -1.71212,1.71212 -0.9455778,0 -1.7121201,-0.76654 -1.7121201,-1.71212 0,-0.94558 0.7665423,-1.71212 1.7121201,-1.71212 0.9455778,0 1.71212,0.76654 1.71212,1.71212 z" />
    <circle
       d="m 6.0321202,112.32 c 0,0.94558 -0.7665422,1.71212 -1.71212,1.71212 -0.9455778,0 -1.7121201,-0.76654 -1.7121201,-1.71212 0,-0.94558 0.7665423,-1.71212 1.7121201,-1.71212 0.9455778,0 1.71212,0.76654 1.71212,1.71212 z"
       style="fill:none;stroke:#ffbf00;stroke-width:1.44000006"
       sodipodi:ry="1.7121201"
       sodipodi:rx="1.7121201"
       sodipodi:cy="112.32"
       sodipodi:cx="4.3200002"
       cy="112.32"
       cx="4.3200002"
       id="connector18pin"
       r="1.7121201"
       transform="matrix(0,-1,1,0,14.163777,23.2044)" />
    <circle
       transform="matrix(0,-1,1,0,7.0242449,23.2044)"
       r="1.7121201"
       id="connector19pin"
       cx="4.3200002"
       cy="112.32"
       sodipodi:cx="4.3200002"
       sodipodi:cy="112.32"
       sodipodi:rx="1.7121201"
       sodipodi:ry="1.7121201"
       style="fill:none;stroke:#ffbf00;stroke-width:1.44000006"
       d="m 6.0321202,112.32 c 0,0.94558 -0.7665422,1.71212 -1.71212,1.71212 -0.9455778,0 -1.7121201,-0.76654 -1.7121201,-1.71212 0,-0.94558 0.7665423,-1.71212 1.7121201,-1.71212 0.9455778,0 1.71212,0.76654 1.71212,1.71212 z" />
    <circle
       d="m 6.0321202,112.32 c 0,0.94558 -0.7665422,1.71212 -1.71212,1.71212 -0.9455778,0 -1.7121201,-0.76654 -1.7121201,-1.71212 0,-0.94558 0.7665423,-1.71212 1.7121201,-1.71212 0.9455778,0 1.71212,0.76654 1.71212,1.71212 z"
       style="fill:none;stroke:#ffbf00;stroke-width:1.44000006"
       sodipodi:ry="1.7121201"
       sodipodi:rx="1.7121201"
       sodipodi:cy="112.32"
       sodipodi:cx="4.3200002"
       cy="112.32"
       cx="4.3200002"
       id="connector20pin"
       r="1.7121201"
       transform="matrix(0,-1,1,0,-0.1152869,23.2044)" />
    <circle
       transform="matrix(0,-1,1,0,-7.2548065,23.2044)"
       r="1.7121201"
       id="connector21pin"
       cx="4.3200002"
       cy="112.32"
       sodipodi:cx="4.3200002"
       sodipodi:cy="112.32"
       sodipodi:rx="1.7121201"
       sodipodi:ry="1.7121201"
       style="fill:none;stroke:#ffbf00;stroke-width:1.44000006"
       d="m 6.0321202,112.32 c 0,0.94558 -0.7665422,1.71212 -1.71212,1.71212 -0.9455778,0 -1.7121201,-0.76654 -1.7121201,-1.71212 0,-0.94558 0.7665423,-1.71212 1.7121201,-1.71212 0.9455778,0 1.71212,0.76654 1.71212,1.71212 z" />
    <circle
       d="m 6.0321202,112.32 c 0,0.94558 -0.7665422,1.71212 -1.71212,1.71212 -0.9455778,0 -1.7121201,-0.76654 -1.7121201,-1.71212 0,-0.94558 0.7665423,-1.71212 1.7121201,-1.71212 0.9455778,0 1.71212,0.76654 1.71212,1.71212 z"
       style="fill:none;stroke:#ffbf00;stroke-width:1.44000006"
       sodipodi:ry="1.7121201"
       sodipodi:rx="1.7121201"
       sodipodi:cy="112.32"
       sodipodi:cx="4.3200002"
       cy="112.32"
       cx="4.3200002"
       id="connector22pin"
       r="1.7121201"
       transform="matrix(0,-1,1,0,-14.394338,23.2044)" />
    <circle
       transform="matrix(0,-1,1,0,-21.53387,23.2044)"
       r="1.7121201"
       id="connector23pin"
       cx="4.3200002"
       cy="112.32"
       sodipodi:cx="4.3200002"
       sodipodi:cy="112.32"
       sodipodi:rx="1.7121201"
       sodipodi:ry="1.7121201"
       style="fill:none;stroke:#ffbf00;stroke-width:1.44000006"
       d="m 6.0321202,112.32 c 0,0.94558 -0.7665422,1.71212 -1.71212,1.71212 -0.9455778,0 -1.7121201,-0.76654 -1.7121201,-1.71212 0,-0.94558 0.7665423,-1.71212 1.7121201,-1.71212 0.9455778,0 1.71212,0.76654 1.71212,1.71212 z" />
    <circle
       d="m 6.0321202,112.32 c 0,0.94558 -0.7665422,1.71212 -1.71212,1.71212 -0.9455778,0 -1.7121201,-0.76654 -1.7121201,-1.71212 0,-0.94558 0.7665423,-1.71212 1.7121201,-1.71212 0.9455778,0 1.71212,0.76654 1.71212,1.71212 z"
       style="fill:none;stroke:#ffbf00;stroke-width:1.44000006"
       sodipodi:ry="1.7121201"
       sodipodi:rx="1.7121201"
       sodipodi:cy="112.32"
       sodipodi:cx="4.3200002"
       cy="112.32"
       cx="4.3200002"
       id="connector24pin"
       r="1.7121201"
       transform="matrix(0,-1,1,0,-28.673396,23.2044)" />
    <circle
       transform="matrix(0,-1,1,0,-35.812928,23.2044)"
       r="1.7121201"
       id="connector25pin"
       cx="4.3200002"
       cy="112.32"
       sodipodi:cx="4.3200002"
       sodipodi:cy="112.32"
       sodipodi:rx="1.7121201"
       sodipodi:ry="1.7121201"
       style="fill:none;stroke:#ffbf00;stroke-width:1.44000006"
       d="m 6.0321202,112.32 c 0,0.94558 -0.7665422,1.71212 -1.71212,1.71212 -0.9455778,0 -1.7121201,-0.76654 -1.7121201,-1.71212 0,-0.94558 0.7665423,-1.71212 1.7121201,-1.71212 0.9455778,0 1.71212,0.76654 1.71212,1.71212 z" />
    <circle
       d="m 6.0321202,112.32 c 0,0.94558 -0.7665422,1.71212 -1.71212,1.71212 -0.9455778,0 -1.7121201,-0.76654 -1.7121201,-1.71212 0,-0.94558 0.7665423,-1.71212 1.7121201,-1.71212 0.9455778,0 1.71212,0.76654 1.71212,1.71212 z"
       style="fill:none;stroke:#ffbf00;stroke-width:1.44000006"
       sodipodi:ry="1.7121201"
       sodipodi:rx="1.7121201"
       sodipodi:cy="112.32"
       sodipodi:cx="4.3200002"
       cy="112.32"
       cx="4.3200002"
       id="connector26pin"
       r="1.7121201"
       transform="matrix(0,-1,1,0,-42.952453,23.2044)" />
    <circle
       transform="matrix(0,-1,1,0,-50.091985,23.2044)"
       r="1.7121201"
       id="connector27pin"
       cx="4.3200002"
       cy="112.32"
       sodipodi:cx="4.3200002"
       sodipodi:cy="112.32"
       sodipodi:rx="1.7121201"
       sodipodi:ry="1.7121201"
       style="fill:none;stroke:#ffbf00;stroke-width:1.44000006"
       d="m 6.0321202,112.32 c 0,0.94558 -0.7665422,1.71212 -1.71212,1.71212 -0.9455778,0 -1.7121201,-0.76654 -1.7121201,-1.71212 0,-0.94558 0.7665423,-1.71212 1.7121201,-1.71212 0.9455778,0 1.71212,0.76654 1.71212,1.71212 z" />
    <circle
       d="m 6.0321202,112.32 c 0,0.94558 -0.7665422,1.71212 -1.71212,1.71212 -0.9455778,0 -1.7121201,-0.76654 -1.7121201,-1.71212 0,-0.94558 0.7665423,-1.71212 1.7121201,-1.71212 0.9455778,0 1.71212,0.76654 1.71212,1.71212 z"
       style="fill:none;stroke:#ffbf00;stroke-width:1.44000006"
       sodipodi:ry="1.7121201"
       sodipodi:rx="1.7121201"
       sodipodi:cy="112.32"
       sodipodi:cx="4.3200002"
       cy="112.32"
       cx="4.3200002"
       id="connector28pin"
       r="1.7121201"
       transform="matrix(0,-1,1,0,-57.231511,23.2044)" />
    <circle
       transform="matrix(0,-1,1,0,-64.37104,23.2044)"
       r="1.7121201"
       id="connector29pin"
       cx="4.3200002"
       cy="112.32"
       sodipodi:cx="4.3200002"
       sodipodi:cy="112.32"
       sodipodi:rx="1.7121201"
       sodipodi:ry="1.7121201"
       style="fill:none;stroke:#ffbf00;stroke-width:1.44000006"
       d="m 6.0321202,112.32 c 0,0.94558 -0.7665422,1.71212 -1.71212,1.71212 -0.9455778,0 -1.7121201,-0.76654 -1.7121201,-1.71212 0,-0.94558 0.7665423,-1.71212 1.7121201,-1.71212 0.9455778,0 1.71212,0.76654 1.71212,1.71212 z" />
    <circle
       d="m 6.0321202,112.32 c 0,0.94558 -0.7665422,1.71212 -1.71212,1.71212 -0.9455778,0 -1.7121201,-0.76654 -1.7121201,-1.71212 0,-0.94558 0.7665423,-1.71212 1.7121201,-1.71212 0.9455778,0 1.71212,0.76654 1.71212,1.71212 z"
       style="fill:none;stroke:#ffbf00;stroke-width:1.44000006"
       sodipodi:ry="1.7121201"
       sodipodi:rx="1.7121201"
       sodipodi:cy="112.32"
       sodipodi:cx="4.3200002"
       cy="112.32"
       cx="4.3200002"
       id="connector30pin"
       r="1.7121201"
       transform="matrix(0,-1,1,0,-71.51057,23.2044)" />
  </g>
  <g
     id="silkscreen">
    <rect
       style="fill:none;stroke:#ffffff;stroke-width:0.56692915;stroke-miterlimit:4;stroke-dasharray:none;stroke-dashoffset:0"
       id="rect3791"
       width="170.88683"
       height="170.88683"
       x="0.30461872"
       y="0.30461073" />
  </g>
</svg>
