<?xml version='1.0' encoding='UTF-8' standalone='no'?>
<!-- Created with Fritzing (http://www.fritzing.org/) -->
<svg xmlns:svg='http://www.w3.org/2000/svg' xmlns='http://www.w3.org/2000/svg' version='1.2' baseProfile='tiny' x='0in' y='0in' width='0.805556in' height='1.11111in' viewBox='0 0 58 79.9999' >
<g partID='22560'><g xmlns="http://www.w3.org/2000/svg" id="breadboard">
 <rect xmlns="http://www.w3.org/2000/svg" fill="#FFFDFD" x="0.363" y="0.25" width="56.193" height="78.02"/>
 <polyline xmlns="http://www.w3.org/2000/svg" fill="none" stroke-width="0.25" stroke="#D1C7C7" points="6.86,14.06,8.773,12.2,23.173,12.2"/>
 <polyline xmlns="http://www.w3.org/2000/svg" fill="none" stroke-width="0.25" stroke="#D1C7C7" points="50.061,57.26,53.238,57.291,53.238,66.625,50.96,68.875,35.062,68.875,33.625,66.625"/>
 <line xmlns="http://www.w3.org/2000/svg" y1="64.459" y2="64.4" fill="none" x1="50.061" x2="44.773" stroke-width="0.25" stroke="#D1C7C7"/>
 <polyline xmlns="http://www.w3.org/2000/svg" fill="none" stroke-width="0.25" stroke="#D1C7C7" points="6.859,35.659,10.573,39.2,12.373,41.001,12.373,42.801"/>
 <polyline xmlns="http://www.w3.org/2000/svg" fill="none" stroke-width="0.25" stroke="#D1C7C7" points="35.773,39.2,46.572,39.2,50.061,35.659"/>
 <polyline xmlns="http://www.w3.org/2000/svg" fill="none" stroke-width="0.25" stroke="#D1C7C7" points="6.859,28.458,3.373,32.001,3.373,68.001,6.973,71.602,51.973,71.602,55.572,68.001,55.572,19.4,50.061,14.06"/>
 <line xmlns="http://www.w3.org/2000/svg" y1="42.857" y2="42.801" fill="none" x1="50.061" x2="39.373" stroke-width="0.25" stroke="#D1C7C7"/>
 <line xmlns="http://www.w3.org/2000/svg" y1="28.458" y2="28.4" fill="none" x1="50.061" x2="42.973" stroke-width="0.25" stroke="#D1C7C7"/>
 <line xmlns="http://www.w3.org/2000/svg" y1="50.059" y2="50.001" fill="none" x1="50.061" x2="55.572" stroke-width="0.25" stroke="#D1C7C7"/>
 <line xmlns="http://www.w3.org/2000/svg" y1="42.857" y2="42.801" fill="none" x1="6.859" x2="3.373" stroke-width="0.25" stroke="#D1C7C7"/>
 <line xmlns="http://www.w3.org/2000/svg" y1="21.259" y2="21.2" fill="none" x1="6.859" x2="17.773" stroke-width="0.25" stroke="#D1C7C7"/>
 <path xmlns="http://www.w3.org/2000/svg" fill="#9B9B9B" d="M56.557,0.25l0,78.02L0.363,78.27L0.363,0.25L56.557,0.25M56.807,0L0.113,0l0,78.52l56.693,0L56.806,0L56.807,0z"/>
 <polygon xmlns="http://www.w3.org/2000/svg" fill="#EF1818" points="21.583,10.938,42.65,10.938,44.055,12.339,41.245,16.553,22.986,16.553,20.18,12.339"/>
 <polygon xmlns="http://www.w3.org/2000/svg" fill="#D1C7C7" points="45.46,13.743,46.863,16.553,44.055,35.604,41.245,38.409,38.438,35.604,41.245,17.957"/>
 <polygon xmlns="http://www.w3.org/2000/svg" fill="#D1C7C7" points="41.245,39.815,42.65,42.623,39.842,61.672,37.031,64.48,34.223,61.672,37.031,44.03"/>
 <polygon xmlns="http://www.w3.org/2000/svg" fill="#D1C7C7" points="34.223,67.288,13.156,67.288,11.751,65.881,14.562,61.672,32.82,61.672,35.626,65.886"/>
 <polygon xmlns="http://www.w3.org/2000/svg" fill="#EF1818" points="10.346,64.48,8.942,61.672,11.751,42.623,14.562,39.815,17.368,42.623,14.562,60.266"/>
 <polygon xmlns="http://www.w3.org/2000/svg" fill="#EF1818" points="14.562,38.409,13.156,35.604,15.965,16.553,18.774,13.743,21.583,16.553,18.774,34.199"/>
 <polyline xmlns="http://www.w3.org/2000/svg" fill="#EF1818" points="15.965,38.409,18.774,35.604,37.031,35.604,39.842,38.409,37.031,41.219,18.774,41.219"/>
 <circle xmlns="http://www.w3.org/2000/svg" cx="43.452" r="2.958" cy="64.478" fill="#D1C7C7"/>
 <polygon xmlns="http://www.w3.org/2000/svg" fill="#9B9B9B" points="0,78.509,0.553,79.123,57.246,79.123,57.247,0.693,56.693,0.079,56.693,78.509"/>
 <rect xmlns="http://www.w3.org/2000/svg" fill="#8C8C8C" x="5.96" y="13.16" width="1.8" height="1.799"/>
 <rect xmlns="http://www.w3.org/2000/svg" fill="#8C8C8C" x="5.959" y="20.359" width="1.8" height="1.799"/>
 <rect xmlns="http://www.w3.org/2000/svg" fill="#8C8C8C" x="5.959" y="27.559" width="1.8" height="1.799"/>
 <rect xmlns="http://www.w3.org/2000/svg" fill="#8C8C8C" x="5.959" y="34.76" width="1.8" height="1.799"/>
 <rect xmlns="http://www.w3.org/2000/svg" fill="#8C8C8C" x="5.959" y="41.959" width="1.8" height="1.799"/>
 <rect xmlns="http://www.w3.org/2000/svg" fill="#8C8C8C" x="49.16" y="13.16" width="1.8" height="1.799"/>
 <rect xmlns="http://www.w3.org/2000/svg" fill="#8C8C8C" x="49.16" y="27.559" width="1.8" height="1.799"/>
 <rect xmlns="http://www.w3.org/2000/svg" fill="#8C8C8C" x="49.16" y="34.76" width="1.8" height="1.799"/>
 <rect xmlns="http://www.w3.org/2000/svg" fill="#8C8C8C" x="49.16" y="41.959" width="1.8" height="1.799"/>
 <rect xmlns="http://www.w3.org/2000/svg" fill="#8C8C8C" x="5.959" y="49.159" width="1.8" height="1.799"/>
 <rect xmlns="http://www.w3.org/2000/svg" fill="#8C8C8C" x="49.16" y="49.159" width="1.8" height="1.799"/>
 <rect xmlns="http://www.w3.org/2000/svg" fill="#8C8C8C" x="49.16" y="56.359" width="1.8" height="1.8"/>
 <rect xmlns="http://www.w3.org/2000/svg" fill="#8C8C8C" x="49.16" y="63.561" width="1.8" height="1.799"/>
</g>
</g></svg>