<?xml version='1.0' encoding='UTF-8' standalone='no'?>
<!-- Created with Fritzing (http://www.fritzing.org/) -->
<svg xmlns:svg='http://www.w3.org/2000/svg' xmlns='http://www.w3.org/2000/svg' version='1.2' baseProfile='tiny' x='0in' y='0in' width='1.57124in' height='0.4in' viewBox='0 0 113.129 28.8' >
<g partID='22560'><g id="schematic">
<polyline fill="none" stroke-linecap="round" stroke-miterlimit="10" stroke-width="0.7" stroke="#000000" points="3.6,7.2,104.4,7.2,104.4,14.401"/>
<line y1="21.599" y2="21.599" fill="none" stroke-linecap="round" x1="90" x2="86.398" stroke-width="0.7" stroke="#000000"/>
<line y1="21.599" y2="21.599" fill="none" stroke-linecap="round" x1="93.6" x2="90" stroke-width="0.7" stroke="#000000"/>
<polygon fill="#FFFFFF" stroke-linecap="round" stroke-width="0.7" stroke="#000000" points="86.398,14.399,90,14.399,93.6,14.399,90,21.599"/>
<line y1="21.599" y2="14.399" fill="none" stroke-linecap="round" x1="90" x2="90" stroke-width="0.45" stroke="#000000"/>
<line y1="18.899" y2="16.56" fill="none" stroke-linecap="round" x1="97.109" x2="94.77" stroke-width="0.45" stroke="#000000"/>
<line y1="22.14" y2="19.8" fill="none" stroke-linecap="round" x1="96.749" x2="94.409" stroke-width="0.45" stroke="#000000"/>
<line y1="21.599" y2="28.8" fill="none" stroke-linecap="round" x1="90" x2="90" stroke-width="0.7" stroke="#787878" id="connector1pin_31_"/>
<polygon fill="none" points="89.999,28.8,90,28.8,90,28.8" id="connector1terminal_31_"/>
<line y1="14.399" y2="7.199" fill="none" stroke-linecap="round" x1="90" x2="90" stroke-width="0.7" stroke="#000000" id="connector0pin_31_"/>
<rect fill="none" x="89.999" y="7.199" width="0.001" id="connector0terminal_31_" height="0.001"/>
<path d="M96.209,19.438L97.648,18l1.08,2.521L96.209,19.438z"/>
<path d="M95.85,22.679l1.439,-1.439l1.08,2.521L95.85,22.679z"/>
<line y1="21.599" y2="21.599" fill="none" stroke-linecap="round" x1="75.6" x2="72" stroke-width="0.7" stroke="#000000"/>
<line y1="21.599" y2="21.599" fill="none" stroke-linecap="round" x1="79.2" x2="75.6" stroke-width="0.7" stroke="#000000"/>
<polygon fill="#FFFFFF" stroke-linecap="round" stroke-width="0.7" stroke="#000000" points="72,14.399,75.6,14.399,79.2,14.399,75.6,21.599"/>
<line y1="21.599" y2="14.399" fill="none" stroke-linecap="round" x1="75.6" x2="75.6" stroke-width="0.45" stroke="#000000"/>
<line y1="18.899" y2="16.56" fill="none" stroke-linecap="round" x1="82.709" x2="80.37" stroke-width="0.45" stroke="#000000"/>
<line y1="22.14" y2="19.8" fill="none" stroke-linecap="round" x1="82.35" x2="80.009" stroke-width="0.45" stroke="#000000"/>
<line y1="21.599" y2="28.8" fill="none" stroke-linecap="round" x1="75.6" x2="75.6" stroke-width="0.7" stroke="#787878" id="connector1pin_30_"/>
<line y1="14.399" y2="7.199" fill="none" stroke-linecap="round" x1="75.6" x2="75.6" stroke-width="0.7" stroke="#000000" id="connector0pin_30_"/>
<path d="M81.809,19.438L83.249,18l1.08,2.521L81.809,19.438z"/>
<path d="M81.45,22.679l1.438,-1.439l1.077,2.521L81.45,22.679z"/>
<line y1="21.599" y2="21.599" fill="none" stroke-linecap="round" x1="61.2" x2="57.6" stroke-width="0.7" stroke="#000000"/>
<line y1="21.599" y2="21.599" fill="none" stroke-linecap="round" x1="64.8" x2="61.2" stroke-width="0.7" stroke="#000000"/>
<polygon fill="#FFFFFF" stroke-linecap="round" stroke-width="0.7" stroke="#000000" points="57.6,14.399,61.2,14.399,64.8,14.399,61.2,21.599"/>
<line y1="21.599" y2="14.399" fill="none" stroke-linecap="round" x1="61.2" x2="61.2" stroke-width="0.45" stroke="#000000"/>
<line y1="18.899" y2="16.56" fill="none" stroke-linecap="round" x1="68.311" x2="65.971" stroke-width="0.45" stroke="#000000"/>
<line y1="22.14" y2="19.8" fill="none" stroke-linecap="round" x1="67.949" x2="65.609" stroke-width="0.45" stroke="#000000"/>
<line y1="21.599" y2="28.8" fill="none" stroke-linecap="round" x1="61.2" x2="61.2" stroke-width="0.7" stroke="#787878" id="connector1pin_29_"/>
<line y1="14.399" y2="7.199" fill="none" stroke-linecap="round" x1="61.2" x2="61.2" stroke-width="0.7" stroke="#000000" id="connector0pin_29_"/>
<path d="M67.409,19.438L68.85,18l1.08,2.521L67.409,19.438z"/>
<path d="M67.05,22.679l1.438,-1.439l1.08,2.521L67.05,22.679z"/>
<line y1="21.599" y2="21.599" fill="none" stroke-linecap="round" x1="46.8" x2="43.2" stroke-width="0.7" stroke="#000000"/>
<line y1="21.599" y2="21.599" fill="none" stroke-linecap="round" x1="50.4" x2="46.8" stroke-width="0.7" stroke="#000000"/>
<polygon fill="#FFFFFF" stroke-linecap="round" stroke-width="0.7" stroke="#000000" points="43.2,14.399,46.8,14.399,50.4,14.399,46.8,21.599"/>
<line y1="21.599" y2="14.399" fill="none" stroke-linecap="round" x1="46.8" x2="46.8" stroke-width="0.45" stroke="#000000"/>
<line y1="18.899" y2="16.56" fill="none" stroke-linecap="round" x1="53.91" x2="51.57" stroke-width="0.45" stroke="#000000"/>
<line y1="22.14" y2="19.8" fill="none" stroke-linecap="round" x1="53.549" x2="51.209" stroke-width="0.45" stroke="#000000"/>
<line y1="21.599" y2="28.8" fill="none" stroke-linecap="round" x1="46.8" x2="46.8" stroke-width="0.7" stroke="#787878" id="connector1pin_28_"/>
<line y1="14.399" y2="7.199" fill="none" stroke-linecap="round" x1="46.8" x2="46.8" stroke-width="0.7" stroke="#000000" id="connector0pin_28_"/>
<path d="M53.009,19.438L54.449,18l1.08,2.521L53.009,19.438z"/>
<path d="M52.65,22.679l1.439,-1.439l1.08,2.521L52.65,22.679z"/>
<line y1="21.599" y2="21.599" fill="none" stroke-linecap="round" x1="32.4" x2="28.8" stroke-width="0.7" stroke="#000000"/>
<line y1="21.599" y2="21.599" fill="none" stroke-linecap="round" x1="36" x2="32.4" stroke-width="0.7" stroke="#000000"/>
<polygon fill="#FFFFFF" stroke-linecap="round" stroke-width="0.7" stroke="#000000" points="28.8,14.399,32.4,14.399,36,14.399,32.4,21.599"/>
<line y1="21.599" y2="14.399" fill="none" stroke-linecap="round" x1="32.4" x2="32.4" stroke-width="0.45" stroke="#000000"/>
<line y1="18.899" y2="16.56" fill="none" stroke-linecap="round" x1="39.51" x2="37.17" stroke-width="0.45" stroke="#000000"/>
<line y1="22.14" y2="19.8" fill="none" stroke-linecap="round" x1="39.149" x2="36.81" stroke-width="0.45" stroke="#000000"/>
<line y1="21.599" y2="28.8" fill="none" stroke-linecap="round" x1="32.4" x2="32.4" stroke-width="0.7" stroke="#787878" id="connector1pin_27_"/>
<line y1="14.399" y2="7.199" fill="none" stroke-linecap="round" x1="32.4" x2="32.4" stroke-width="0.7" stroke="#000000" id="connector0pin_27_"/>
<path d="M38.609,19.438L40.049,18l1.08,2.521L38.609,19.438z"/>
<path d="M38.25,22.679l1.439,-1.439l1.08,2.521L38.25,22.679z"/>
<line y1="21.599" y2="21.599" fill="none" stroke-linecap="round" x1="18" x2="14.4" stroke-width="0.7" stroke="#000000"/>
<line y1="21.599" y2="21.599" fill="none" stroke-linecap="round" x1="21.6" x2="18" stroke-width="0.7" stroke="#000000"/>
<polygon fill="#FFFFFF" stroke-linecap="round" stroke-width="0.7" stroke="#000000" points="14.4,14.399,18,14.399,21.6,14.399,18,21.599"/>
<line y1="21.599" y2="14.399" fill="none" stroke-linecap="round" x1="18" x2="18" stroke-width="0.45" stroke="#000000"/>
<line y1="18.899" y2="16.56" fill="none" stroke-linecap="round" x1="25.11" x2="22.77" stroke-width="0.45" stroke="#000000"/>
<line y1="22.14" y2="19.8" fill="none" stroke-linecap="round" x1="24.75" x2="22.41" stroke-width="0.45" stroke="#000000"/>
<line y1="21.599" y2="28.8" fill="none" stroke-linecap="round" x1="18" x2="18" stroke-width="0.7" stroke="#787878" id="connector1pin_26_"/>
<line y1="14.399" y2="7.199" fill="none" stroke-linecap="round" x1="18" x2="18" stroke-width="0.7" stroke="#000000" id="connector0pin_26_"/>
<path d="M24.209,19.438L25.649,18l1.08,2.521L24.209,19.438z"/>
<path d="M23.85,22.679l1.439,-1.439l1.08,2.521L23.85,22.679z"/>
<line y1="21.599" y2="21.599" fill="none" stroke-linecap="round" x1="3.601" x2="0" stroke-width="0.7" stroke="#000000"/>
<line y1="21.599" y2="21.599" fill="none" stroke-linecap="round" x1="7.2" x2="3.601" stroke-width="0.7" stroke="#000000"/>
<polygon fill="#FFFFFF" stroke-linecap="round" stroke-width="0.7" stroke="#000000" points="0,14.399,3.601,14.399,7.2,14.399,3.601,21.599"/>
<line y1="21.599" y2="14.399" fill="none" stroke-linecap="round" x1="3.601" x2="3.601" stroke-width="0.45" stroke="#000000"/>
<line y1="18.899" y2="16.56" fill="none" stroke-linecap="round" x1="10.71" x2="8.37" stroke-width="0.45" stroke="#000000"/>
<line y1="22.14" y2="19.8" fill="none" stroke-linecap="round" x1="10.35" x2="8.01" stroke-width="0.45" stroke="#000000"/>
<line y1="21.599" y2="28.8" fill="none" stroke-linecap="round" x1="3.601" x2="3.601" stroke-width="0.7" stroke="#787878" id="connector1pin_25_"/>
<polygon fill="none" points="3.6,28.8,3.601,28.8,3.601,28.8" id="connector1terminal_25_"/>
<line y1="14.399" y2="7.199" fill="none" stroke-linecap="round" x1="3.601" x2="3.601" stroke-width="0.7" stroke="#000000" id="connector0pin_25_"/>
<rect fill="none" x="3.6" y="7.199" width="0.001" id="connector0terminal_25_" height="0.001"/>
<path d="M9.81,19.438L11.25,18l1.08,2.521L9.81,19.438z"/>
<path d="M9.45,22.679l1.439,-1.439l1.08,2.521L9.45,22.679z"/>
<g transform="matrix(1, 0, 0, 1, 106.199, 28.0005)">
<text fill="#787878" font-family="'DroidSans'" font-size="2">9</text>
</g>
<g transform="matrix(1, 0, 0, 1, 91.7998, 28.0005)">
<text fill="#787878" font-family="'DroidSans'" font-size="2">13</text>
</g>
<g transform="matrix(1, 0, 0, 1, 55.5298, 4.6997)">
<text fill="#787878" font-family="'DroidSans'" font-size="2">3, 5, 11, 16</text>
</g>
<g transform="matrix(1, 0, 0, 1, 77.4004, 28.0005)">
<text fill="#787878" font-family="'DroidSans'" font-size="2">2</text>
</g>
<g transform="matrix(1, 0, 0, 1, 63, 28.0005)">
<text fill="#787878" font-family="'DroidSans'" font-size="2">4</text>
</g>
<g transform="matrix(1, 0, 0, 1, 48.6001, 28.0005)">
<text fill="#787878" font-family="'DroidSans'" font-size="2">10</text>
</g>
<g transform="matrix(1, 0, 0, 1, 34.2002, 28.0005)">
<text fill="#787878" font-family="'DroidSans'" font-size="2">12</text>
</g>
<g transform="matrix(1, 0, 0, 1, 19.8003, 28.0005)">
<text fill="#787878" font-family="'DroidSans'" font-size="2">14</text>
</g>
<g transform="matrix(1, 0, 0, 1, 5.4004, 28.0005)">
<text fill="#787878" font-family="'DroidSans'" font-size="2">1</text>
</g>
<line y1="7.2" y2="0" fill="none" stroke-linecap="round" x1="54" x2="54" stroke-miterlimit="10" stroke-width="0.7" stroke="#787878"/>
<line y1="12.991" y2="12.991" fill="none" stroke-linecap="round" x1="7.075" x2="4.885" stroke-width="0.5" stroke="#CCCCCC"/>
<line y1="10.802" y2="10.802" fill="none" stroke-linecap="round" x1="5.25" x2="7.44" stroke-width="0.5" stroke="#CCCCCC"/>
<line y1="12.991" y2="12.991" fill="none" stroke-linecap="round" x1="7.806" x2="7.806" stroke-width="0.5" stroke="#CCCCCC"/>
<line y1="10.802" y2="12.991" fill="none" stroke-linecap="round" x1="5.25" x2="4.885" stroke-width="0.5" stroke="#CCCCCC"/>
<line y1="8.61" y2="10.802" fill="none" stroke-linecap="round" x1="5.615" x2="5.25" stroke-width="0.5" stroke="#CCCCCC"/>
<line y1="10.802" y2="12.991" fill="none" stroke-linecap="round" x1="7.44" x2="7.075" stroke-width="0.5" stroke="#CCCCCC"/>
<line y1="8.61" y2="10.802" fill="none" stroke-linecap="round" x1="7.806" x2="7.44" stroke-width="0.5" stroke="#CCCCCC"/>
<line y1="8.61" y2="8.61" fill="none" stroke-linecap="round" x1="7.806" x2="5.615" stroke-width="0.5" stroke="#000000"/>
<line y1="8.61" y2="8.61" fill="none" stroke-linecap="round" x1="22.179" x2="19.989" stroke-width="0.5" stroke="#CCCCCC"/>
<line y1="12.991" y2="12.991" fill="none" stroke-linecap="round" x1="21.449" x2="19.259" stroke-width="0.5" stroke="#CCCCCC"/>
<line y1="10.802" y2="10.802" fill="none" stroke-linecap="round" x1="19.624" x2="21.815" stroke-width="0.5" stroke="#CCCCCC"/>
<line y1="12.991" y2="12.991" fill="none" stroke-linecap="round" x1="22.179" x2="22.179" stroke-width="0.5" stroke="#CCCCCC"/>
<line y1="10.802" y2="12.991" fill="none" stroke-linecap="round" x1="19.624" x2="19.259" stroke-width="0.5" stroke="#CCCCCC"/>
<line y1="8.61" y2="10.802" fill="none" stroke-linecap="round" x1="19.989" x2="19.624" stroke-width="0.5" stroke="#CCCCCC"/>
<line y1="10.802" y2="12.991" fill="none" stroke-linecap="round" x1="21.815" x2="21.449" stroke-width="0.5" stroke="#CCCCCC"/>
<line y1="8.61" y2="10.802" fill="none" stroke-linecap="round" x1="22.18" x2="21.815" stroke-width="0.5" stroke="#000000"/>
<line y1="8.61" y2="8.61" fill="none" stroke-linecap="round" x1="36.554" x2="34.363" stroke-width="0.5" stroke="#CCCCCC"/>
<line y1="12.991" y2="12.991" fill="none" stroke-linecap="round" x1="35.824" x2="33.633" stroke-width="0.5" stroke="#CCCCCC"/>
<line y1="10.802" y2="10.802" fill="none" stroke-linecap="round" x1="33.999" x2="36.189" stroke-width="0.5" stroke="#CCCCCC"/>
<line y1="12.991" y2="12.991" fill="none" stroke-linecap="round" x1="36.554" x2="36.554" stroke-width="0.5" stroke="#CCCCCC"/>
<line y1="10.802" y2="12.991" fill="none" stroke-linecap="round" x1="33.999" x2="33.633" stroke-width="0.5" stroke="#CCCCCC"/>
<line y1="8.61" y2="10.802" fill="none" stroke-linecap="round" x1="34.363" x2="33.999" stroke-width="0.5" stroke="#CCCCCC"/>
<line y1="8.61" y2="10.802" fill="none" stroke-linecap="round" x1="36.554" x2="36.189" stroke-width="0.5" stroke="#CCCCCC"/>
<line y1="10.802" y2="12.991" fill="none" stroke-linecap="round" x1="36.189" x2="35.824" stroke-width="0.5" stroke="#000000"/>
<line y1="8.61" y2="8.61" fill="none" stroke-linecap="round" x1="50.927" x2="48.738" stroke-width="0.5" stroke="#CCCCCC"/>
<line y1="10.802" y2="10.802" fill="none" stroke-linecap="round" x1="48.373" x2="50.563" stroke-width="0.5" stroke="#CCCCCC"/>
<line y1="12.991" y2="12.991" fill="none" stroke-linecap="round" x1="50.927" x2="50.927" stroke-width="0.5" stroke="#CCCCCC"/>
<line y1="10.802" y2="12.991" fill="none" stroke-linecap="round" x1="48.373" x2="48.007" stroke-width="0.5" stroke="#CCCCCC"/>
<line y1="8.61" y2="10.802" fill="none" stroke-linecap="round" x1="48.738" x2="48.373" stroke-width="0.5" stroke="#CCCCCC"/>
<line y1="10.802" y2="12.991" fill="none" stroke-linecap="round" x1="50.563" x2="50.198" stroke-width="0.5" stroke="#CCCCCC"/>
<line y1="8.61" y2="10.802" fill="none" stroke-linecap="round" x1="50.928" x2="50.563" stroke-width="0.5" stroke="#CCCCCC"/>
<line y1="12.991" y2="12.991" fill="none" stroke-linecap="round" x1="50.198" x2="48.007" stroke-width="0.5" stroke="#000000"/>
<line y1="8.61" y2="8.61" fill="none" stroke-linecap="round" x1="65.302" x2="63.111" stroke-width="0.5" stroke="#CCCCCC"/>
<line y1="12.991" y2="12.991" fill="none" stroke-linecap="round" x1="64.572" x2="62.381" stroke-width="0.5" stroke="#CCCCCC"/>
<line y1="10.802" y2="10.802" fill="none" stroke-linecap="round" x1="62.747" x2="64.938" stroke-width="0.5" stroke="#CCCCCC"/>
<line y1="12.991" y2="12.991" fill="none" stroke-linecap="round" x1="65.302" x2="65.302" stroke-width="0.5" stroke="#CCCCCC"/>
<line y1="8.61" y2="10.802" fill="none" stroke-linecap="round" x1="63.113" x2="62.747" stroke-width="0.5" stroke="#CCCCCC"/>
<line y1="10.802" y2="12.991" fill="none" stroke-linecap="round" x1="64.938" x2="64.572" stroke-width="0.5" stroke="#CCCCCC"/>
<line y1="8.61" y2="10.802" fill="none" stroke-linecap="round" x1="65.302" x2="64.938" stroke-width="0.5" stroke="#CCCCCC"/>
<line y1="10.802" y2="12.991" fill="none" stroke-linecap="round" x1="62.747" x2="62.381" stroke-width="0.5" stroke="#000000"/>
<line y1="8.61" y2="8.61" fill="none" stroke-linecap="round" x1="79.675" x2="77.486" stroke-width="0.5" stroke="#CCCCCC"/>
<line y1="12.991" y2="12.991" fill="none" stroke-linecap="round" x1="78.945" x2="76.756" stroke-width="0.5" stroke="#CCCCCC"/>
<line y1="10.802" y2="10.802" fill="none" stroke-linecap="round" x1="77.121" x2="79.311" stroke-width="0.5" stroke="#CCCCCC"/>
<line y1="12.991" y2="12.991" fill="none" stroke-linecap="round" x1="79.675" x2="79.675" stroke-width="0.5" stroke="#CCCCCC"/>
<line y1="10.802" y2="12.991" fill="none" stroke-linecap="round" x1="77.121" x2="76.756" stroke-width="0.5" stroke="#CCCCCC"/>
<line y1="8.61" y2="10.802" fill="none" stroke-linecap="round" x1="77.486" x2="77.121" stroke-width="0.5" stroke="#000000"/>
<line y1="10.802" y2="12.991" fill="none" stroke-linecap="round" x1="79.311" x2="78.945" stroke-width="0.5" stroke="#CCCCCC"/>
<line y1="8.61" y2="10.802" fill="none" stroke-linecap="round" x1="79.675" x2="79.311" stroke-width="0.5" stroke="#CCCCCC"/>
<line y1="8.61" y2="8.61" fill="none" stroke-linecap="round" x1="94.05" x2="91.859" stroke-width="0.5" stroke="#CCCCCC"/>
<line y1="12.991" y2="12.991" fill="none" stroke-linecap="round" x1="93.32" x2="91.13" stroke-width="0.5" stroke="#CCCCCC"/>
<line y1="12.991" y2="12.991" fill="none" stroke-linecap="round" x1="94.05" x2="94.05" stroke-width="0.5" stroke="#CCCCCC"/>
<line y1="10.802" y2="12.991" fill="none" stroke-linecap="round" x1="91.496" x2="91.13" stroke-width="0.5" stroke="#CCCCCC"/>
<line y1="8.61" y2="10.802" fill="none" stroke-linecap="round" x1="91.861" x2="91.496" stroke-width="0.5" stroke="#CCCCCC"/>
<line y1="10.802" y2="12.991" fill="none" stroke-linecap="round" x1="93.686" x2="93.32" stroke-width="0.5" stroke="#CCCCCC"/>
<line y1="8.61" y2="10.802" fill="none" stroke-linecap="round" x1="94.05" x2="93.686" stroke-width="0.5" stroke="#CCCCCC"/>
<line y1="10.802" y2="10.802" fill="none" stroke-linecap="round" x1="91.496" x2="93.686" stroke-width="0.5" stroke="#000000"/>
<line y1="8.61" y2="8.61" fill="none" stroke-linecap="round" x1="108.418" x2="106.24" stroke-width="0.5" stroke="#CCCCCC"/>
<line y1="12.991" y2="12.991" fill="none" stroke-linecap="round" x1="107.695" x2="105.512" stroke-width="0.5" stroke="#CCCCCC"/>
<line y1="10.802" y2="10.802" fill="none" stroke-linecap="round" x1="105.869" x2="108.059" stroke-width="0.5" stroke="#CCCCCC"/>
<line y1="10.802" y2="12.991" fill="none" stroke-linecap="round" x1="105.869" x2="105.512" stroke-width="0.5" stroke="#CCCCCC"/>
<line y1="8.61" y2="10.802" fill="none" stroke-linecap="round" x1="106.24" x2="105.869" stroke-width="0.5" stroke="#CCCCCC"/>
<line y1="10.802" y2="12.991" fill="none" stroke-linecap="round" x1="108.059" x2="107.695" stroke-width="0.5" stroke="#CCCCCC"/>
<line y1="8.61" y2="10.802" fill="none" stroke-linecap="round" x1="108.418" x2="108.059" stroke-width="0.5" stroke="#CCCCCC"/>
<line y1="21.6" y2="21.6" fill="none" stroke-linecap="round" x1="104.4" x2="100.799" stroke-width="0.7" stroke="#000000"/>
<line y1="21.6" y2="21.6" fill="none" stroke-linecap="round" x1="108" x2="104.4" stroke-width="0.7" stroke="#000000"/>
<polygon fill="#FFFFFF" stroke-linecap="round" stroke-width="0.7" stroke="#000000" points="100.799,14.401,104.4,14.401,108,14.401,104.4,21.6"/>
<line y1="21.6" y2="14.401" fill="none" stroke-linecap="round" x1="104.4" x2="104.4" stroke-width="0.45" stroke="#000000"/>
<line y1="18.901" y2="16.562" fill="none" stroke-linecap="round" x1="111.509" x2="109.169" stroke-width="0.45" stroke="#000000"/>
<line y1="22.141" y2="19.8" fill="none" stroke-linecap="round" x1="111.148" x2="108.809" stroke-width="0.45" stroke="#000000"/>
<line y1="21.6" y2="28.8" fill="none" stroke-linecap="round" x1="104.4" x2="104.4" stroke-width="0.7" stroke="#787878" id="connector1pin_17_"/>
<polygon fill="none" points="104.398,28.8,104.4,28.8,104.4,28.8" id="connector1terminal_17_"/>
<line y1="14.401" y2="7.2" fill="none" stroke-linecap="round" x1="104.4" x2="104.4" stroke-width="0.7" stroke="#000000" id="connector0pin_17_"/>
<rect fill="none" x="104.398" y="7.2" width="0.002" id="connector0terminal_17_" height="0.001"/>
<path d="M110.609,19.44l1.438,-1.438l1.08,2.521L110.609,19.44z"/>
<path d="M110.25,22.68l1.439,-1.438l1.08,2.521L110.25,22.68z"/>
<rect fill="none" x="104.398" y="21.6" width="0.002" id="connector0terminal_9_" height="0.001"/>
<g>
<rect fill="none" x="53.51" y="0.058" width="0.982" id="connector3pin" height="0.98"/>
<g fill="none" x="53.51" y="0.058" width="0.982" id="connector3terminal" height="0.98"/>
<rect fill="none" x="53.51" y="0.058" width="0.982" id="connector5pin" height="0.98"/>
<g fill="none" x="53.51" y="0.058" width="0.982" id="connector5terminal" height="0.98"/>
<rect fill="none" x="53.51" y="0.058" width="0.982" id="connector11pin" height="0.98"/>
<g fill="none" x="53.51" y="0.058" width="0.982" id="connector11terminal" height="0.98"/>
<rect fill="none" x="53.509" y="0.054" width="0.981" id="connector16pin" height="0.981"/>
<g fill="none" x="53.509" y="0.056" width="0.981" id="connector16terminal" height="0.981"/>
<rect fill="none" x="89.509" y="27.816" width="0.981" id="connector13pin" height="0.982"/>
<g fill="none" x="89.509" y="27.816" width="0.981" id="connector13terminal" height="0.982"/>
<rect fill="none" x="31.908" y="27.816" width="0.982" id="connector12pin" height="0.982"/>
<g fill="none" x="31.908" y="27.816" width="0.982" id="connector12terminal" height="0.982"/>
<rect fill="none" x="75.109" y="27.818" width="0.979" id="connector2pin" height="0.98"/>
<g fill="none" x="75.109" y="27.818" width="0.979" id="connector2terminal" height="0.98"/>
<g fill="none" x="17.508" y="27.816" width="0.982" id="connector14terminal" height="0.982"/>
<rect fill="none" x="17.508" y="27.816" width="0.982" id="connector14pin" height="0.982"/>
<g fill="none" x="3.104" y="27.816" width="0.982" id="connector1terminal" height="0.982"/>
<rect fill="none" x="3.104" y="27.816" width="0.982" id="connector1pin" height="0.982"/>
<g fill="none" x="46.31" y="27.816" width="0.982" id="connector10terminal" height="0.982"/>
<rect fill="none" x="46.31" y="27.816" width="0.982" id="connector10pin" height="0.982"/>
<g fill="none" x="60.708" y="27.816" width="0.981" id="connector4terminal" height="0.982"/>
<rect fill="none" x="60.708" y="27.816" width="0.981" id="connector4pin" height="0.982"/>
<rect fill="none" x="103.908" y="27.818" width="0.98" id="connector9pin" height="0.98"/>
<g fill="none" x="103.908" y="27.818" width="0.98" id="connector9terminal" height="0.98"/>
</g>
</g>
</g></svg>