<?xml version='1.0' encoding='UTF-8' standalone='no'?>
<!-- Created with Fritzing (http://www.fritzing.org/) -->
<svg xmlns:svg='http://www.w3.org/2000/svg' xmlns='http://www.w3.org/2000/svg' version='1.2' baseProfile='tiny' x='0in' y='0in' width='2.2in' height='2.43544in' viewBox='0 0 158.4 175.352' >
<g partID='854203910'><g  id="breadboard">
 <g  id="icon">
  <g transform="matrix(0, -1, 1, 0, 62.4756, 131.924)">
   <g >
    <g transform="matrix(-2.54711e-06, -1, 1, -2.54711e-06, 92.2363, 161.685)">
     <rect  x="125.543" y="33.3339" height="2.78099" id="connector128pin" width="2.834" fill="#9A916C"/>
    </g>
   </g>
  </g>
  <g transform="matrix(0, -1, 1, 0, 55.2756, 124.724)">
   <g >
    <g transform="matrix(-2.54711e-06, -1, 1, -2.54711e-06, 85.036, 154.485)">
     <rect  x="118.343" y="33.3339" height="2.78099" id="connector129pin" width="2.835" fill="#9A916C"/>
    </g>
   </g>
  </g>
  <g transform="matrix(0, -1, 1, 0, 48.0756, 117.524)">
   <g >
    <g transform="matrix(-2.54711e-06, -1, 1, -2.54711e-06, 77.8362, 147.285)">
     <rect  x="111.143" y="33.3339" height="2.78099" id="connector130pin" width="2.835" fill="#9A916C"/>
    </g>
   </g>
  </g>
  <g transform="matrix(0, -1, 1, 0, 40.8756, 110.324)">
   <g >
    <g transform="matrix(-2.54711e-06, -1, 1, -2.54711e-06, 70.6364, 140.084)">
     <rect  x="103.943" y="33.3339" height="2.78099" id="connector131pin" width="2.835" fill="#9A916C"/>
    </g>
   </g>
  </g>
  <g transform="matrix(0, -1, 1, 0, 33.6756, 103.124)">
   <g >
    <g transform="matrix(-2.54711e-06, -1, 1, -2.54711e-06, 63.4361, 132.885)">
     <rect  x="96.743" y="33.3339" height="2.78099" id="connector132pin" width="2.834" fill="#9A916C"/>
    </g>
   </g>
  </g>
  <g transform="matrix(0, -1, 1, 0, 26.4756, 95.924)">
   <g >
    <g transform="matrix(-2.54711e-06, -1, 1, -2.54711e-06, 56.2364, 125.685)">
     <rect  x="89.544" y="33.3339" height="2.78099" id="connector133pin" width="2.834" fill="#9A916C"/>
    </g>
   </g>
  </g>
  <rect  x="59.809" y="167.921" stroke="#9A916C" height="2.78099" id="connector134pin" width="2.781" fill="none" stroke-width="0.864"/>
  <rect  x="67.01" y="167.921" stroke="#9A916C" height="2.78099" id="connector135pin" width="2.781" fill="none" stroke-width="0.864"/>
  <rect  x="74.21" y="167.921" stroke="#9A916C" height="2.78099" id="connector136pin" width="2.781" fill="none" stroke-width="0.864"/>
  <rect  x="81.41" y="167.921" stroke="#9A916C" height="2.78099" id="connector137pin" width="2.78" fill="none" stroke-width="0.864"/>
  <rect  x="88.609" y="167.921" stroke="#9A916C" height="2.78099" id="connector138pin" width="2.781" fill="none" stroke-width="0.864"/>
  <rect  x="95.809" y="167.921" stroke="#9A916C" height="2.78099" id="connector139pin" width="2.781" fill="none" stroke-width="0.864"/>
 </g>
 <g >
  <g >
   <g >
    <path  d="M158.078,33.7619L158.078,8.63198l-24.965,0l0,1.088l-26.736,0L106.377,8.63198L53.113,8.63198l0,1.088L26.377,9.71998L26.377,8.63198L1.411,8.63198l0,25.131L0.322,33.7629l0,26.736l1.089,0l0,53.2649L0.322,113.764l0,26.735l1.089,0l0,25.132l156.667,0l0,-25.132l-1.089,0l0,-26.735l1.089,0L158.078,60.4989l-1.089,0L156.989,33.7619L158.078,33.7619zM26.377,166.719l26.736,0l0,-1.088L26.377,165.631L26.377,166.719zM106.377,166.719l26.736,0l0,-1.088l-26.736,0L106.377,166.719L106.377,166.719z"/>
   </g>
  </g>
  <g >
   <g >
    <circle  cx="10.037" cy="17.597" r="6.52" fill="#FFFFFF"/>
    <circle  cx="29.953" cy="17.597" r="6.52" fill="#FFFFFF"/>
    <circle  cx="49.87" cy="17.597" r="6.52" fill="#FFFFFF"/>
    <circle  cx="69.786" cy="17.597" r="6.52" fill="#FFFFFF"/>
    <circle  cx="89.703" cy="17.597" r="6.52" fill="#FFFFFF"/>
    <circle  cx="109.619" cy="17.597" r="6.52" fill="#FFFFFF"/>
    <circle  cx="129.536" cy="17.597" r="6.52" fill="#FFFFFF"/>
    <circle  cx="149.452" cy="17.597" r="6.52" fill="#FFFFFF"/>
   </g>
   <g >
    <circle  cx="10.037" cy="37.4639" r="6.52" fill="#FFFFFF"/>
    <circle  cx="29.953" cy="37.4639" r="6.52" fill="#FFFFFF"/>
    <circle  cx="49.87" cy="37.4639" r="6.52" fill="#FFFFFF"/>
    <circle  cx="69.786" cy="37.4639" r="6.52" fill="#FFFFFF"/>
    <circle  cx="89.703" cy="37.4639" r="6.52" fill="#FFFFFF"/>
    <circle  cx="109.619" cy="37.4639" r="6.52" fill="#FFFFFF"/>
    <circle  cx="129.536" cy="37.4639" r="6.52" fill="#FFFFFF"/>
    <circle  cx="149.452" cy="37.4639" r="6.52" fill="#FFFFFF"/>
   </g>
   <g >
    <circle  cx="10.037" cy="57.3309" r="6.52" fill="#FFFFFF"/>
    <circle  cx="29.953" cy="57.3309" r="6.52" fill="#FFFFFF"/>
    <circle  cx="49.87" cy="57.3309" r="6.52" fill="#FFFFFF"/>
    <circle  cx="69.786" cy="57.3309" r="6.52" fill="#FFFFFF"/>
    <circle  cx="89.703" cy="57.3309" r="6.52" fill="#FFFFFF"/>
    <circle  cx="109.619" cy="57.3309" r="6.52" fill="#FFFFFF"/>
    <circle  cx="129.536" cy="57.3309" r="6.52" fill="#FFFFFF"/>
    <circle  cx="149.452" cy="57.3309" r="6.52" fill="#FFFFFF"/>
   </g>
   <g >
    <circle  cx="10.037" cy="77.1969" r="6.52" fill="#FFFFFF"/>
    <circle  cx="29.953" cy="77.1969" r="6.52" fill="#FFFFFF"/>
    <circle  cx="49.87" cy="77.1969" r="6.52" fill="#FFFFFF"/>
    <circle  cx="69.786" cy="77.1969" r="6.52" fill="#FFFFFF"/>
    <circle  cx="89.703" cy="77.1969" r="6.52" fill="#FFFFFF"/>
    <circle  cx="109.619" cy="77.1969" r="6.52" fill="#FFFFFF"/>
    <circle  cx="129.536" cy="77.1969" r="6.52" fill="#FFFFFF"/>
    <circle  cx="149.452" cy="77.1969" r="6.52" fill="#FFFFFF"/>
   </g>
   <g >
    <circle  cx="10.037" cy="97.0628" r="6.52" fill="#FFFFFF"/>
    <circle  cx="29.953" cy="97.0628" r="6.52" fill="#FFFFFF"/>
    <circle  cx="49.87" cy="97.0628" r="6.52" fill="#FFFFFF"/>
    <circle  cx="69.786" cy="97.0628" r="6.52" fill="#FFFFFF"/>
    <circle  cx="89.703" cy="97.0628" r="6.52" fill="#FFFFFF"/>
    <circle  cx="109.619" cy="97.0628" r="6.52" fill="#FFFFFF"/>
    <circle  cx="129.536" cy="97.0628" r="6.52" fill="#FFFFFF"/>
    <circle  cx="149.452" cy="97.0628" r="6.52" fill="#FFFFFF"/>
   </g>
   <g >
    <circle  cx="10.037" cy="116.929" r="6.52" fill="#FFFFFF"/>
    <circle  cx="29.953" cy="116.929" r="6.52" fill="#FFFFFF"/>
    <circle  cx="49.87" cy="116.929" r="6.52" fill="#FFFFFF"/>
    <circle  cx="69.786" cy="116.929" r="6.52" fill="#FFFFFF"/>
    <circle  cx="89.703" cy="116.929" r="6.52" fill="#FFFFFF"/>
    <circle  cx="109.619" cy="116.929" r="6.52" fill="#FFFFFF"/>
    <circle  cx="129.536" cy="116.929" r="6.52" fill="#FFFFFF"/>
    <circle  cx="149.452" cy="116.929" r="6.52" fill="#FFFFFF"/>
   </g>
   <g >
    <circle  cx="10.037" cy="136.797" r="6.52" fill="#FFFFFF"/>
    <circle  cx="29.953" cy="136.797" r="6.52" fill="#FFFFFF"/>
    <circle  cx="49.87" cy="136.797" r="6.52" fill="#FFFFFF"/>
    <circle  cx="69.786" cy="136.797" r="6.52" fill="#FFFFFF"/>
    <circle  cx="89.703" cy="136.797" r="6.52" fill="#FFFFFF"/>
    <circle  cx="109.619" cy="136.797" r="6.52" fill="#FFFFFF"/>
    <circle  cx="129.536" cy="136.797" r="6.52" fill="#FFFFFF"/>
    <circle  cx="149.452" cy="136.797" r="6.52" fill="#FFFFFF"/>
   </g>
   <g >
    <circle  cx="10.037" cy="156.664" r="6.52" fill="#FFFFFF"/>
    <circle  cx="29.953" cy="156.664" r="6.52" fill="#FFFFFF"/>
    <circle  cx="49.87" cy="156.664" r="6.52" fill="#FFFFFF"/>
    <circle  cx="69.786" cy="156.664" r="6.52" fill="#FFFFFF"/>
    <circle  cx="89.703" cy="156.664" r="6.52" fill="#FFFFFF"/>
    <circle  cx="109.619" cy="156.664" r="6.52" fill="#FFFFFF"/>
    <circle  cx="129.536" cy="156.664" r="6.52" fill="#FFFFFF"/>
    <circle  cx="149.452" cy="156.664" r="6.52" fill="#FFFFFF"/>
   </g>
  </g>
 </g>
 <g >
  <rect  x="57.599" y="165.685" height="7.19799" width="43.199" fill="#404040"/>
  <rect  x="59.809" y="167.894" height="0" width="0"/>
  <polygon  points="58.785,166.869,59.807,167.894,62.593,167.894,63.617,166.869" fill="#2A2A29"/>
  <polygon  points="63.617,166.869,62.593,167.896,62.593,170.677,63.617,171.701" fill="#474747"/>
  <polygon  points="63.616,171.701,62.592,170.677,59.807,170.677,58.785,171.701" fill="#595959"/>
  <polygon  points="58.783,171.701,59.807,170.676,59.807,167.894,58.783,166.869" fill="#373737"/>
  <rect  x="67.01" y="167.894" height="2.77999" width="2.78"/>
  <rect  x="59.811" y="167.894" height="2.77999" width="2.78"/>
  <polygon  points="65.984,166.869,67.009,167.894,69.791,167.894,70.815,166.869" fill="#2A2A29"/>
  <polygon  points="70.815,166.869,69.791,167.896,69.791,170.677,70.815,171.701" fill="#474747"/>
  <polygon  points="70.815,171.701,69.79,170.677,67.009,170.677,65.984,171.701" fill="#595959"/>
  <polygon  points="65.982,171.701,67.009,170.676,67.009,167.894,65.982,166.869" fill="#373737"/>
  <rect  x="74.21" y="167.894" height="2.77999" width="2.781"/>
  <polygon  points="73.183,166.869,74.208,167.894,76.992,167.894,78.015,166.869" fill="#2A2A29"/>
  <polygon  points="78.015,166.869,76.992,167.896,76.992,170.677,78.015,171.701" fill="#474747"/>
  <polygon  points="78.015,171.701,76.991,170.677,74.208,170.677,73.183,171.701" fill="#595959"/>
  <polygon  points="73.181,171.701,74.208,170.676,74.208,167.894,73.181,166.869" fill="#373737"/>
  <rect  x="81.411" y="167.894" height="2.77999" width="2.781"/>
  <polygon  points="80.385,166.869,81.409,167.894,84.192,167.894,85.218,166.869" fill="#2A2A29"/>
  <polygon  points="85.218,166.869,84.192,167.896,84.192,170.677,85.218,171.701" fill="#474747"/>
  <polygon  points="85.216,171.701,84.19,170.677,81.409,170.677,80.385,171.701" fill="#595959"/>
  <polygon  points="80.382,171.701,81.409,170.676,81.409,167.894,80.382,166.869" fill="#373737"/>
  <rect  x="88.61" y="167.894" height="2.77999" width="2.78"/>
  <rect  x="95.808" y="167.894" height="2.77999" width="2.781"/>
  <polygon  points="87.585,166.869,88.608,167.894,91.39,167.894,92.417,166.869" fill="#2A2A29"/>
  <polygon  points="92.417,166.869,91.39,167.896,91.39,170.677,92.417,171.701" fill="#474747"/>
  <polygon  points="92.415,171.701,91.39,170.677,88.608,170.677,87.585,171.701" fill="#595959"/>
  <polygon  points="87.583,171.701,88.608,170.676,88.608,167.894,87.583,166.869" fill="#373737"/>
  <polygon  points="97.2,169.285,97.2,169.285,97.2,169.285"/>
  <polygon  points="94.784,166.869,95.806,167.894,98.593,167.894,99.616,166.869" fill="#2A2A29"/>
  <polygon  points="99.616,166.869,98.593,167.896,98.593,170.677,99.616,171.701" fill="#474747"/>
  <polygon  points="99.616,171.701,98.591,170.677,95.806,170.677,94.784,171.701" fill="#595959"/>
  <polygon  points="94.782,171.701,95.806,170.676,95.806,167.894,94.782,166.869" fill="#373737"/>
 </g>
 <g >
  <polygon  points="59.163,1.432,57.599,2.99599,57.599,7.06899,59.163,8.63198,63.235,8.63198,64.8,7.06899,64.8,2.99599,63.235,1.432" fill="#404040"/>
  <rect  x="60.052" y="3.88199" height="2.299" width="2.297" fill="#8D8C8C"/>
  <rect  x="60.609" y="4.43999" height="1.184" width="1.183" fill="#8C8663"/>
  <polygon  points="60.052,3.88199,60.609,4.43999,61.79,4.43999,62.347,3.88199" fill="#B8AF82"/>
  <polygon  points="61.79,5.62199,61.79,4.43999,62.347,3.88199,62.347,6.18099" fill="#80795B"/>
  <polygon  points="60.609,5.62199,61.79,5.62199,62.347,6.18099,60.052,6.18099" fill="#5E5B43"/>
  <polygon  points="60.052,3.88199,60.609,4.43999,60.609,5.62199,60.052,6.18099" fill="#9A916C"/>
  <polygon  points="66.363,1.432,64.8,2.99599,64.8,7.06899,66.363,8.63198,70.435,8.63198,72,7.06899,72,2.99599,70.435,1.432" fill="#404040"/>
  <rect  x="67.251" y="3.88199" height="2.299" width="2.298" fill="#8D8C8C"/>
  <rect  x="67.808" y="4.43999" height="1.184" width="1.183" fill="#8C8663"/>
  <polygon  points="67.251,3.88199,67.808,4.43999,68.991,4.43999,69.549,3.88199" fill="#B8AF82"/>
  <polygon  points="68.991,5.62199,68.991,4.43999,69.549,3.88199,69.549,6.18099" fill="#80795B"/>
  <polygon  points="67.808,5.62199,68.991,5.62199,69.549,6.18099,67.251,6.18099" fill="#5E5B43"/>
  <polygon  points="67.251,3.88199,67.808,4.43999,67.808,5.62199,67.251,6.18099" fill="#9A916C"/>
  <polygon  points="73.562,1.432,72,2.99599,72,7.06899,73.562,8.63198,77.635,8.63198,79.2,7.06899,79.2,2.99599,77.635,1.432" fill="#404040"/>
  <rect  x="74.452" y="3.88199" height="2.299" width="2.297" fill="#8D8C8C"/>
  <rect  x="75.009" y="4.43999" height="1.184" width="1.185" fill="#8C8663"/>
  <polygon  points="74.452,3.88199,75.009,4.43999,76.19,4.43999,76.749,3.88199" fill="#B8AF82"/>
  <polygon  points="76.19,5.62199,76.19,4.43999,76.749,3.88199,76.749,6.18099" fill="#80795B"/>
  <polygon  points="75.009,5.62199,76.19,5.62199,76.749,6.18099,74.452,6.18099" fill="#5E5B43"/>
  <polygon  points="74.452,3.88199,75.009,4.43999,75.009,5.62199,74.452,6.18099" fill="#9A916C"/>
  <polygon  points="80.761,1.432,79.2,2.99599,79.2,7.06899,80.761,8.63198,84.836,8.63198,86.399,7.06899,86.399,2.99599,84.836,1.432" fill="#404040"/>
  <rect  x="81.651" y="3.88199" height="2.299" width="2.297" fill="#8D8C8C"/>
  <rect  x="82.21" y="4.43999" height="1.184" width="1.182" fill="#8C8663"/>
  <polygon  points="81.651,3.88199,82.21,4.43999,83.389,4.43999,83.948,3.88199" fill="#B8AF82"/>
  <polygon  points="83.389,5.62199,83.389,4.43999,83.948,3.88199,83.948,6.18099" fill="#80795B"/>
  <polygon  points="82.21,5.62199,83.389,5.62199,83.948,6.18099,81.651,6.18099" fill="#5E5B43"/>
  <polygon  points="81.651,3.88199,82.21,4.43999,82.21,5.62199,81.651,6.18099" fill="#9A916C"/>
  <polygon  points="87.964,1.432,86.399,2.99599,86.399,7.06899,87.964,8.63198,92.036,8.63198,93.599,7.06899,93.599,2.99599,92.036,1.432" fill="#404040"/>
  <rect  x="88.85" y="3.88199" height="2.299" width="2.299" fill="#8D8C8C"/>
  <rect  x="89.409" y="4.43999" height="1.184" width="1.183" fill="#8C8663"/>
  <polygon  points="88.85,3.88199,89.409,4.43999,90.591,4.43999,91.149,3.88199" fill="#B8AF82"/>
  <polygon  points="90.591,5.62199,90.591,4.43999,91.149,3.88199,91.149,6.18099" fill="#80795B"/>
  <polygon  points="89.409,5.62199,90.591,5.62199,91.149,6.18099,88.85,6.18099" fill="#5E5B43"/>
  <polygon  points="88.85,3.88199,89.409,4.43999,89.409,5.62199,88.85,6.18099" fill="#9A916C"/>
  <polygon  points="95.163,1.432,93.599,2.99599,93.599,7.06899,95.163,8.63198,99.235,8.63198,100.8,7.06899,100.8,2.99599,99.235,1.432" fill="#404040"/>
  <rect  x="96.052" y="3.88199" height="2.299" width="2.297" fill="#8D8C8C"/>
  <rect  x="96.609" y="4.43999" height="1.184" width="1.183" fill="#8C8663"/>
  <polygon  points="96.052,3.88199,96.609,4.43999,97.79,4.43999,98.347,3.88199" fill="#B8AF82"/>
  <polygon  points="97.79,5.62199,97.79,4.43999,98.347,3.88199,98.347,6.18099" fill="#80795B"/>
  <polygon  points="96.609,5.62199,97.79,5.62199,98.347,6.18099,96.052,6.18099" fill="#5E5B43"/>
  <polygon  points="96.052,3.88199,96.609,4.43999,96.609,5.62199,96.052,6.18099" fill="#9A916C"/>
 </g>
</g>
</g></svg>