<?xml version='1.0' encoding='utf-8'?>
<!DOCTYPE svg>
<!-- Generator: Adobe Illustrator 15.0.0, SVG Export Plug-In . SVG Version: 6.00 Build 0)  -->
<svg xmlns="http://www.w3.org/2000/svg" width="1.48229in" x="0px" version="1.1" y="0px" gorn="0"  height="1.48229in" viewBox="0 0 106.725 106.725" xmlns:xml="http://www.w3.org/XML/1998/namespace" id="svg4112" enable-background="new 0 0 106.725 106.725" xml:space="preserve">
    <desc >
        <referenceFile >LED MATRIX 1588ASR 8X8 BB.svg</referenceFile>
    </desc>
    <g gorn="0.1"  id="breadboard_1_">
        <path opacity="0.75" fill="#010101" gorn="0.1.0"  id="path3024_1_" enable-background="new    " d="M0,107.584h106.725V0H0V107.584L0,107.584z"/>
        <g gorn="0.1.1"  id="LEDs_1_">
            <g >
                <path opacity="0.65" fill="#FF0101" gorn="0.1.1.0.0"  id="path3056_15_" enable-background="new    " d="M23.4,5.487c0,2.364-1.934,4.38-4.204,4.38c-2.326,0-4.203-2.016-4.203-4.38c0-2.421,1.877-4.377,4.203-4.377C21.467,1.11,23.4,3.066,23.4,5.487"/>
                <path opacity="0.65" fill="#FF0101" gorn="0.1.1.0.1"  id="path3054_15_" enable-background="new    " d="M9.622,5.487c0,2.364-1.935,4.38-4.202,4.38c-2.329,0-4.207-2.016-4.207-4.38c0-2.421,1.879-4.377,4.207-4.377C7.69,1.11,9.622,3.066,9.622,5.487"/>
                <path opacity="0.65" fill="#FF0101" gorn="0.1.1.0.2"  id="path3058_15_" enable-background="new    " d="M37.117,5.487c0,2.364-1.935,4.38-4.204,4.38c-2.327,0-4.204-2.016-4.204-4.38c0-2.421,1.877-4.377,4.204-4.377C35.184,1.11,37.117,3.066,37.117,5.487"/>
                <path opacity="0.65" fill="#FF0101" gorn="0.1.1.0.3"  id="path3060_15_" enable-background="new    " d="M50.806,5.487c0,2.364-1.934,4.38-4.204,4.38c-2.327,0-4.204-2.016-4.204-4.38c0-2.421,1.877-4.377,4.204-4.377C48.873,1.11,50.806,3.066,50.806,5.487"/>
                <path opacity="0.65" fill="#FF0101" gorn="0.1.1.0.4"  id="path3062_63_" enable-background="new    " d="M64.486,5.487c0,2.364-1.934,4.38-4.205,4.38c-2.325,0-4.202-2.016-4.202-4.38c0-2.421,1.877-4.377,4.202-4.377C62.552,1.11,64.486,3.066,64.486,5.487"/>
                <path opacity="0.65" fill="#FF0101" gorn="0.1.1.0.5"  id="path3062_62_" enable-background="new    " d="M78.21,5.487c0,2.364-1.935,4.38-4.205,4.38c-2.326,0-4.205-2.016-4.205-4.38c0-2.422,1.879-4.377,4.205-4.377C76.277,1.11,78.21,3.065,78.21,5.487"/>
                <path opacity="0.65" fill="#FF0101" gorn="0.1.1.0.6"  id="path3062_61_" enable-background="new    " d="M92.062,5.487c0,2.364-1.934,4.38-4.205,4.38c-2.326,0-4.205-2.016-4.205-4.38c0-2.422,1.879-4.377,4.205-4.377C90.128,1.11,92.062,3.065,92.062,5.487"/>
                <path opacity="0.65" fill="#FF0101" gorn="0.1.1.0.7"  id="path3062_60_" enable-background="new    " d="M105.536,5.487c0,2.364-1.935,4.38-4.205,4.38c-2.326,0-4.205-2.016-4.205-4.38c0-2.422,1.879-4.377,4.205-4.377C103.603,1.11,105.536,3.066,105.536,5.487"/>
            </g>
            <g >
                <path opacity="0.65" fill="#FF0101" gorn="0.1.1.1.0"  id="path3056_14_" enable-background="new    " d="M23.28,19.131c0,2.364-1.934,4.377-4.207,4.377c-2.326,0-4.203-2.013-4.203-4.377c0-2.422,1.877-4.378,4.203-4.378C21.346,14.753,23.28,16.709,23.28,19.131"/>
                <path opacity="0.65" fill="#FF0101" gorn="0.1.1.1.1"  id="path3054_14_" enable-background="new    " d="M9.502,19.131c0,2.364-1.938,4.377-4.205,4.377c-2.327,0-4.207-2.013-4.207-4.377c0-2.422,1.88-4.378,4.207-4.378C7.565,14.753,9.502,16.709,9.502,19.131"/>
                <path opacity="0.65" fill="#FF0101" gorn="0.1.1.1.2"  id="path3058_14_" enable-background="new    " d="M36.995,19.131c0,2.364-1.935,4.377-4.204,4.377c-2.325,0-4.204-2.013-4.204-4.377c0-2.422,1.879-4.378,4.204-4.378C35.061,14.753,36.995,16.709,36.995,19.131"/>
                <path opacity="0.65" fill="#FF0101" gorn="0.1.1.1.3"  id="path3060_14_" enable-background="new    " d="M50.684,19.131c0,2.364-1.934,4.377-4.204,4.377c-2.327,0-4.204-2.013-4.204-4.377c0-2.422,1.877-4.378,4.204-4.378C48.75,14.753,50.684,16.709,50.684,19.131"/>
                <path opacity="0.65" fill="#FF0101" gorn="0.1.1.1.4"  id="path3062_59_" enable-background="new    " d="M64.365,19.131c0,2.364-1.936,4.377-4.206,4.377c-2.326,0-4.203-2.013-4.203-4.377c0-2.422,1.879-4.378,4.203-4.378C62.429,14.753,64.365,16.709,64.365,19.131"/>
                <path opacity="0.65" fill="#FF0101" gorn="0.1.1.1.5"  id="path3062_58_" enable-background="new    " d="M78.089,19.131c0,2.364-1.937,4.377-4.207,4.377c-2.324,0-4.203-2.013-4.203-4.377c0-2.424,1.879-4.378,4.203-4.378C76.154,14.753,78.089,16.709,78.089,19.131"/>
                <path opacity="0.65" fill="#FF0101" gorn="0.1.1.1.6"  id="path3062_57_" enable-background="new    " d="M91.939,19.131c0,2.364-1.934,4.377-4.205,4.377c-2.325,0-4.203-2.013-4.203-4.377c0-2.424,1.878-4.378,4.203-4.378C90.005,14.753,91.939,16.709,91.939,19.131"/>
                <path opacity="0.65" fill="#FF0101" gorn="0.1.1.1.7"  id="path3062_56_" enable-background="new    " d="M105.415,19.131c0,2.364-1.937,4.377-4.207,4.377c-2.326,0-4.203-2.013-4.203-4.377c0-2.424,1.879-4.378,4.203-4.378C103.48,14.753,105.415,16.709,105.415,19.131"/>
            </g>
            <g >
                <path opacity="0.65" fill="#FF0101" gorn="0.1.1.2.0"  id="path3056_13_" enable-background="new    " d="M23.278,33.049c0,2.364-1.934,4.378-4.203,4.378c-2.327,0-4.204-2.014-4.204-4.378c0-2.422,1.877-4.378,4.204-4.378C21.344,28.671,23.278,30.627,23.278,33.049"/>
                <path opacity="0.65" fill="#FF0101" gorn="0.1.1.2.1"  id="path3054_13_" enable-background="new    " d="M9.499,33.049c0,2.364-1.935,4.378-4.205,4.378c-2.327,0-4.204-2.014-4.204-4.378c0-2.422,1.88-4.378,4.204-4.378C7.565,28.671,9.499,30.627,9.499,33.049"/>
                <path opacity="0.65" fill="#FF0101" gorn="0.1.1.2.2"  id="path3058_13_" enable-background="new    " d="M36.995,33.049c0,2.364-1.935,4.378-4.204,4.378c-2.325,0-4.204-2.014-4.204-4.378c0-2.422,1.879-4.378,4.204-4.378C35.061,28.671,36.995,30.627,36.995,33.049"/>
                <path opacity="0.65" fill="#FF0101" gorn="0.1.1.2.3"  id="path3060_13_" enable-background="new    " d="M50.684,33.049c0,2.364-1.934,4.378-4.204,4.378c-2.327,0-4.207-2.014-4.207-4.378c0-2.422,1.879-4.378,4.207-4.378C48.75,28.671,50.684,30.627,50.684,33.049"/>
                <path opacity="0.65" fill="#FF0101" gorn="0.1.1.2.4"  id="path3062_55_" enable-background="new    " d="M64.365,33.049c0,2.364-1.936,4.378-4.206,4.378c-2.326,0-4.203-2.014-4.203-4.378c0-2.422,1.879-4.378,4.203-4.378C62.429,28.671,64.365,30.627,64.365,33.049"/>
                <path opacity="0.65" fill="#FF0101" gorn="0.1.1.2.5"  id="path3062_54_" enable-background="new    " d="M78.087,33.049c0,2.364-1.935,4.378-4.205,4.378c-2.326,0-4.205-2.014-4.205-4.378c0-2.423,1.879-4.378,4.205-4.378C76.154,28.671,78.087,30.626,78.087,33.049"/>
                <path opacity="0.65" fill="#FF0101" gorn="0.1.1.2.6"  id="path3062_53_" enable-background="new    " d="M91.939,33.049c0,2.364-1.934,4.378-4.205,4.378c-2.328,0-4.205-2.014-4.205-4.378c0-2.423,1.877-4.378,4.205-4.378C90.005,28.671,91.939,30.626,91.939,33.049"/>
                <path opacity="0.65" fill="#FF0101" gorn="0.1.1.2.7"  id="path3062_52_" enable-background="new    " d="M105.413,33.049c0,2.364-1.935,4.378-4.205,4.378c-2.326,0-4.205-2.014-4.205-4.378c0-2.423,1.879-4.378,4.205-4.378C103.48,28.671,105.413,30.627,105.413,33.049"/>
            </g>
            <g >
                <path opacity="0.65" fill="#FF0101" gorn="0.1.1.3.0"  id="path3056_12_" enable-background="new    " d="M23.28,46.767c0,2.365-1.934,4.378-4.207,4.378c-2.326,0-4.203-2.013-4.203-4.378c0-2.422,1.877-4.378,4.203-4.378C21.346,42.389,23.28,44.345,23.28,46.767"/>
                <path opacity="0.65" fill="#FF0101" gorn="0.1.1.3.1"  id="path3054_12_" enable-background="new    " d="M9.502,46.767c0,2.365-1.938,4.378-4.205,4.378c-2.327,0-4.207-2.013-4.207-4.378c0-2.422,1.88-4.378,4.207-4.378C7.565,42.389,9.502,44.345,9.502,46.767"/>
                <path opacity="0.65" fill="#FF0101" gorn="0.1.1.3.2"  id="path3058_12_" enable-background="new    " d="M36.995,46.767c0,2.365-1.935,4.378-4.204,4.378c-2.325,0-4.204-2.013-4.204-4.378c0-2.422,1.879-4.378,4.204-4.378C35.061,42.389,36.995,44.345,36.995,46.767"/>
                <path opacity="0.65" fill="#FF0101" gorn="0.1.1.3.3"  id="path3060_12_" enable-background="new    " d="M50.684,46.767c0,2.365-1.934,4.378-4.204,4.378c-2.327,0-4.204-2.013-4.204-4.378c0-2.422,1.877-4.378,4.204-4.378C48.75,42.389,50.684,44.345,50.684,46.767"/>
                <path opacity="0.65" fill="#FF0101" gorn="0.1.1.3.4"  id="path3062_51_" enable-background="new    " d="M64.365,46.767c0,2.365-1.936,4.378-4.206,4.378c-2.326,0-4.203-2.013-4.203-4.378c0-2.422,1.879-4.378,4.203-4.378C62.429,42.389,64.365,44.345,64.365,46.767"/>
                <path opacity="0.65" fill="#FF0101" gorn="0.1.1.3.5"  id="path3062_50_" enable-background="new    " d="M78.089,46.767c0,2.365-1.937,4.378-4.207,4.378c-2.324,0-4.203-2.013-4.203-4.378c0-2.423,1.879-4.378,4.203-4.378C76.154,42.389,78.089,44.344,78.089,46.767"/>
                <path opacity="0.65" fill="#FF0101" gorn="0.1.1.3.6"  id="path3062_49_" enable-background="new    " d="M91.939,46.767c0,2.365-1.934,4.378-4.205,4.378c-2.325,0-4.203-2.013-4.203-4.378c0-2.423,1.878-4.378,4.203-4.378C90.005,42.389,91.939,44.344,91.939,46.767"/>
                <path opacity="0.65" fill="#FF0101" gorn="0.1.1.3.7"  id="path3062_48_" enable-background="new    " d="M105.415,46.767c0,2.365-1.937,4.378-4.207,4.378c-2.326,0-4.203-2.013-4.203-4.378c0-2.423,1.879-4.378,4.203-4.378C103.48,42.389,105.415,44.345,105.415,46.767"/>
            </g>
            <g >
                <path opacity="0.65" fill="#FF0101" gorn="0.1.1.4.0"  id="path3056_11_" enable-background="new    " d="M23.499,60.384c0,2.365-1.935,4.379-4.205,4.379c-2.329,0-4.207-2.014-4.207-4.379c0-2.422,1.877-4.377,4.207-4.377C21.565,56.007,23.499,57.962,23.499,60.384"/>
                <path opacity="0.65" fill="#FF0101" gorn="0.1.1.4.1"  id="path3054_11_" enable-background="new    " d="M9.72,60.384c0,2.365-1.934,4.379-4.204,4.379c-2.327,0-4.204-2.014-4.204-4.379c0-2.422,1.877-4.377,4.204-4.377C7.787,56.007,9.72,57.962,9.72,60.384"/>
                <path opacity="0.65" fill="#FF0101" gorn="0.1.1.4.2"  id="path3058_11_" enable-background="new    " d="M37.214,60.384c0,2.365-1.935,4.379-4.202,4.379c-2.327,0-4.207-2.014-4.207-4.379c0-2.422,1.88-4.377,4.207-4.377C35.281,56.007,37.214,57.962,37.214,60.384"/>
                <path opacity="0.65" fill="#FF0101" gorn="0.1.1.4.3"  id="path3060_11_" enable-background="new    " d="M50.906,60.384c0,2.365-1.936,4.379-4.206,4.379c-2.325,0-4.204-2.014-4.204-4.379c0-2.422,1.879-4.377,4.204-4.377C48.969,56.007,50.906,57.962,50.906,60.384"/>
                <path opacity="0.65" fill="#FF0101" gorn="0.1.1.4.4"  id="path3062_47_" enable-background="new    " d="M64.583,60.384c0,2.365-1.935,4.379-4.205,4.379c-2.328,0-4.205-2.014-4.205-4.379c0-2.422,1.879-4.377,4.205-4.377C62.65,56.007,64.583,57.962,64.583,60.384"/>
                <path opacity="0.65" fill="#FF0101" gorn="0.1.1.4.5"  id="path3062_46_" enable-background="new    " d="M78.308,60.384c0,2.365-1.934,4.379-4.203,4.379c-2.328,0-4.207-2.014-4.207-4.379c0-2.422,1.879-4.377,4.207-4.377C76.374,56.007,78.308,57.962,78.308,60.384"/>
                <path opacity="0.65" fill="#FF0101" gorn="0.1.1.4.6"  id="path3062_45_" enable-background="new    " d="M92.159,60.384c0,2.365-1.937,4.379-4.207,4.379c-2.326,0-4.203-2.014-4.203-4.379c0-2.422,1.877-4.377,4.203-4.377C90.224,56.007,92.159,57.962,92.159,60.384"/>
                <path opacity="0.65" fill="#FF0101" gorn="0.1.1.4.7"  id="path3062_44_" enable-background="new    " d="M105.634,60.384c0,2.365-1.934,4.379-4.207,4.379c-2.326,0-4.203-2.014-4.203-4.379c0-2.422,1.879-4.377,4.203-4.377C103.7,56.007,105.634,57.962,105.634,60.384"/>
            </g>
            <g >
                <path opacity="0.65" fill="#FF0101" gorn="0.1.1.5.0"  id="path3056_10_" enable-background="new    " d="M23.499,74.002c0,2.365-1.935,4.379-4.205,4.379c-2.329,0-4.207-2.014-4.207-4.379c0-2.422,1.877-4.377,4.207-4.377C21.565,69.625,23.499,71.58,23.499,74.002"/>
                <path opacity="0.65" fill="#FF0101" gorn="0.1.1.5.1"  id="path3054_10_" enable-background="new    " d="M9.72,74.002c0,2.365-1.934,4.379-4.204,4.379c-2.327,0-4.204-2.014-4.204-4.379c0-2.422,1.877-4.377,4.204-4.377C7.787,69.625,9.72,71.58,9.72,74.002"/>
                <path opacity="0.65" fill="#FF0101" gorn="0.1.1.5.2"  id="path3058_10_" enable-background="new    " d="M37.214,74.002c0,2.365-1.935,4.379-4.202,4.379c-2.327,0-4.207-2.014-4.207-4.379c0-2.422,1.88-4.377,4.207-4.377C35.281,69.625,37.214,71.58,37.214,74.002"/>
                <path opacity="0.65" fill="#FF0101" gorn="0.1.1.5.3"  id="path3060_10_" enable-background="new    " d="M50.906,74.002c0,2.365-1.936,4.379-4.206,4.379c-2.325,0-4.204-2.014-4.204-4.379c0-2.422,1.879-4.377,4.204-4.377C48.969,69.625,50.906,71.58,50.906,74.002"/>
                <path opacity="0.65" fill="#FF0101" gorn="0.1.1.5.4"  id="path3062_43_" enable-background="new    " d="M64.583,74.002c0,2.365-1.935,4.379-4.205,4.379c-2.328,0-4.205-2.014-4.205-4.379c0-2.422,1.879-4.377,4.205-4.377C62.65,69.625,64.583,71.58,64.583,74.002"/>
                <path opacity="0.65" fill="#FF0101" gorn="0.1.1.5.5"  id="path3062_42_" enable-background="new    " d="M78.308,74.002c0,2.365-1.934,4.379-4.203,4.379c-2.328,0-4.207-2.014-4.207-4.379c0-2.422,1.879-4.377,4.207-4.377C76.374,69.625,78.308,71.58,78.308,74.002"/>
                <path opacity="0.65" fill="#FF0101" gorn="0.1.1.5.6"  id="path3062_41_" enable-background="new    " d="M92.159,74.002c0,2.365-1.937,4.379-4.207,4.379c-2.326,0-4.203-2.014-4.203-4.379c0-2.422,1.877-4.377,4.203-4.377C90.224,69.625,92.159,71.58,92.159,74.002"/>
                <path opacity="0.65" fill="#FF0101" gorn="0.1.1.5.7"  id="path3062_40_" enable-background="new    " d="M105.634,74.002c0,2.365-1.934,4.379-4.207,4.379c-2.326,0-4.203-2.014-4.203-4.379c0-2.422,1.879-4.377,4.203-4.377C103.7,69.625,105.634,71.58,105.634,74.002"/>
            </g>
            <g >
                <path opacity="0.65" fill="#FF0101" gorn="0.1.1.6.0"  id="path3056_9_" enable-background="new    " d="M23.499,87.62c0,2.362-1.935,4.377-4.205,4.377c-2.329,0-4.207-2.015-4.207-4.377c0-2.423,1.877-4.379,4.207-4.379C21.565,83.24,23.499,85.198,23.499,87.62"/>
                <path opacity="0.65" fill="#FF0101" gorn="0.1.1.6.1"  id="path3054_9_" enable-background="new    " d="M9.72,87.62c0,2.362-1.934,4.377-4.204,4.377c-2.327,0-4.204-2.015-4.204-4.377c0-2.423,1.877-4.379,4.204-4.379C7.787,83.24,9.72,85.198,9.72,87.62"/>
                <path opacity="0.65" fill="#FF0101" gorn="0.1.1.6.2"  id="path3058_9_" enable-background="new    " d="M37.214,87.62c0,2.362-1.935,4.377-4.202,4.377c-2.327,0-4.207-2.015-4.207-4.377c0-2.423,1.88-4.379,4.207-4.379C35.281,83.24,37.214,85.198,37.214,87.62"/>
                <path opacity="0.65" fill="#FF0101" gorn="0.1.1.6.3"  id="path3060_9_" enable-background="new    " d="M50.906,87.62c0,2.362-1.936,4.377-4.206,4.377c-2.325,0-4.204-2.015-4.204-4.377c0-2.423,1.879-4.379,4.204-4.379C48.969,83.24,50.906,85.198,50.906,87.62"/>
                <path opacity="0.65" fill="#FF0101" gorn="0.1.1.6.4"  id="path3062_39_" enable-background="new    " d="M64.583,87.62c0,2.362-1.935,4.377-4.205,4.377c-2.328,0-4.205-2.015-4.205-4.377c0-2.423,1.879-4.379,4.205-4.379C62.65,83.24,64.583,85.198,64.583,87.62"/>
                <path opacity="0.65" fill="#FF0101" gorn="0.1.1.6.5"  id="path3062_38_" enable-background="new    " d="M78.308,87.62c0,2.362-1.934,4.377-4.203,4.377c-2.328,0-4.207-2.015-4.207-4.377c0-2.425,1.879-4.379,4.207-4.379C76.374,83.24,78.308,85.198,78.308,87.62"/>
                <path opacity="0.65" fill="#FF0101" gorn="0.1.1.6.6"  id="path3062_37_" enable-background="new    " d="M92.159,87.62c0,2.362-1.937,4.377-4.207,4.377c-2.326,0-4.203-2.015-4.203-4.377c0-2.425,1.877-4.379,4.203-4.379C90.224,83.24,92.159,85.198,92.159,87.62"/>
                <path opacity="0.65" fill="#FF0101" gorn="0.1.1.6.7"  id="path3062_36_" enable-background="new    " d="M105.634,87.62c0,2.362-1.934,4.377-4.207,4.377c-2.326,0-4.203-2.015-4.203-4.377c0-2.425,1.879-4.379,4.203-4.379C103.7,83.24,105.634,85.198,105.634,87.62"/>
            </g>
            <g >
                <path opacity="0.65" fill="#FF0101" gorn="0.1.1.7.0"  id="path3056_8_" enable-background="new    " d="M23.499,101.239c0,2.363-1.935,4.377-4.205,4.377c-2.329,0-4.207-2.014-4.207-4.377c0-2.422,1.877-4.379,4.207-4.379C21.565,96.86,23.499,98.817,23.499,101.239"/>
                <path opacity="0.65" fill="#FF0101" gorn="0.1.1.7.1"  id="path3054_8_" enable-background="new    " d="M9.72,101.239c0,2.363-1.934,4.377-4.204,4.377c-2.327,0-4.204-2.014-4.204-4.377c0-2.422,1.877-4.379,4.204-4.379C7.787,96.86,9.72,98.817,9.72,101.239"/>
                <path opacity="0.65" fill="#FF0101" gorn="0.1.1.7.2"  id="path3058_8_" enable-background="new    " d="M37.214,101.239c0,2.363-1.935,4.377-4.202,4.377c-2.327,0-4.207-2.014-4.207-4.377c0-2.422,1.88-4.379,4.207-4.379C35.281,96.86,37.214,98.817,37.214,101.239"/>
                <path opacity="0.65" fill="#FF0101" gorn="0.1.1.7.3"  id="path3060_8_" enable-background="new    " d="M50.906,101.239c0,2.363-1.936,4.377-4.206,4.377c-2.325,0-4.204-2.014-4.204-4.377c0-2.422,1.879-4.379,4.204-4.379C48.969,96.86,50.906,98.817,50.906,101.239"/>
                <path opacity="0.65" fill="#FF0101" gorn="0.1.1.7.4"  id="path3062_35_" enable-background="new    " d="M64.583,101.239c0,2.363-1.935,4.377-4.205,4.377c-2.328,0-4.205-2.014-4.205-4.377c0-2.422,1.879-4.379,4.205-4.379C62.65,96.86,64.583,98.817,64.583,101.239"/>
                <path opacity="0.65" fill="#FF0101" gorn="0.1.1.7.5"  id="path3062_34_" enable-background="new    " d="M78.308,101.239c0,2.363-1.934,4.377-4.203,4.377c-2.328,0-4.207-2.014-4.207-4.377c0-2.424,1.879-4.379,4.207-4.379C76.374,96.86,78.308,98.815,78.308,101.239"/>
                <path opacity="0.65" fill="#FF0101" gorn="0.1.1.7.6"  id="path3062_33_" enable-background="new    " d="M92.159,101.239c0,2.363-1.937,4.377-4.207,4.377c-2.326,0-4.203-2.014-4.203-4.377c0-2.424,1.877-4.379,4.203-4.379C90.224,96.86,92.159,98.815,92.159,101.239"/>
                <path opacity="0.65" fill="#FF0101" gorn="0.1.1.7.7"  id="path3062_32_" enable-background="new    " d="M105.634,101.239c0,2.363-1.934,4.377-4.207,4.377c-2.326,0-4.203-2.014-4.203-4.377c0-2.424,1.879-4.379,4.203-4.379C103.7,96.86,105.634,98.817,105.634,101.239"/>
            </g>
        </g>
        <g gorn="0.1.2"  id="Pins_9-16_1_">
            <path fill="#8C8C8C" gorn="0.1.2.0"  id="Pad16_1_" d="M27.174,15.469h2.738v-3.255h-2.738V15.469z"/>
            <path fill="#8C8C8C" gorn="0.1.2.1"  id="Pad15_1_" d="M34.208,15.469h2.736v-3.255h-2.736V15.469z"/>
            <path fill="#8C8C8C" gorn="0.1.2.2"  id="Pad14_1_" d="M41.279,15.47h2.72v-3.256h-2.72V15.47z"/>
            <path fill="#8C8C8C" gorn="0.1.2.3"  id="Pad13_2_" d="M48.443,15.47h2.738v-3.257h-2.738V15.47L48.443,15.47z"/>
            <path fill="#8C8C8C" gorn="0.1.2.4"  id="Pad12_1_" d="M55.558,15.469h2.738v-3.255h-2.738V15.469z"/>
            <path fill="#8C8C8C" gorn="0.1.2.5"  id="Pad11_1_" d="M62.831,15.469h2.735v-3.255h-2.735V15.469z"/>
            <path fill="#8C8C8C" gorn="0.1.2.6"  id="Pad10_1_" d="M69.671,15.469h2.758v-3.255h-2.758V15.469z"/>
            <path fill="#8C8C8C" gorn="0.1.2.7"  id="Pad9_1_" d="M76.804,15.469h2.758v-3.255h-2.758V15.469z"/>
            <rect width="2.794" x="27.146" y="11.786" fill="none" gorn="0.1.2.8"  height="3.429" id="connector16"/>
            <rect width="2.794" x="34.179" y="11.786" fill="none" gorn="0.1.2.9"  height="3.429" id="connector15"/>
            <rect width="2.795" x="41.24" y="11.935" fill="none" gorn="0.1.2.10"  height="3.429" id="connector14"/>
            <rect width="2.794" x="48.415" y="11.935" fill="none" gorn="0.1.2.11"  height="3.429" id="connector13"/>
            <rect width="2.796" x="55.529" y="12.041" fill="none" gorn="0.1.2.12"  height="3.43" id="connector12"/>
            <rect width="2.793" x="62.802" y="12.127" fill="none" gorn="0.1.2.13"  height="3.429" id="connector11"/>
            <rect width="2.793" x="69.654" y="12.127" fill="none" gorn="0.1.2.14"  height="3.429" id="connector10"/>
            <rect width="2.793" x="76.786" y="12.127" fill="none" gorn="0.1.2.15"  height="3.43" id="connector9"/>
        </g>
        <g gorn="0.1.3"  id="Pins_1-8_1_">
            <path fill="#8C8C8C" gorn="0.1.3.0"  id="Pad8_2_" d="M76.801,94.853h2.734v-3.256h-2.734V94.853z"/>
            <path fill="#8C8C8C" gorn="0.1.3.1"  id="Pad7_1_" d="M69.668,94.722h2.754v-3.256h-2.754V94.722z"/>
            <path fill="#8C8C8C" gorn="0.1.3.2"  id="Pad6_2_" d="M62.823,94.7h2.757v-3.257h-2.757V94.7z"/>
            <path fill="#8C8C8C" gorn="0.1.3.3"  id="Pad5_1_" d="M55.569,94.689h2.734v-3.254h-2.734V94.689z"/>
            <path fill="#8C8C8C" gorn="0.1.3.4"  id="Pad4_2_" d="M48.462,94.689h2.735v-3.254h-2.735V94.689L48.462,94.689z"/>
            <path fill="#8C8C8C" gorn="0.1.3.5"  id="Pad3_1_" d="M41.305,94.484h2.716V91.23h-2.716V94.484z"/>
            <path fill="#8C8C8C" gorn="0.1.3.6"  id="Pad2_1_" d="M34.241,94.398h2.733v-3.256h-2.733V94.398L34.241,94.398z"/>
            <path fill="#8C8C8C" gorn="0.1.3.7"  id="Pad1_1_" d="M27.189,94.484h2.734V91.23h-2.734V94.484z"/>
            <rect width="2.791" x="76.774" y="91.511" fill="none" gorn="0.1.3.8"  height="3.428" id="connector8"/>
            <rect width="2.791" x="69.649" y="91.38" fill="none" gorn="0.1.3.9"  height="3.43" id="connector7"/>
            <rect width="2.791" x="62.805" y="91.347" fill="none" gorn="0.1.3.10"  height="3.43" id="connector6"/>
            <rect width="2.791" x="55.541" y="91.347" fill="none" gorn="0.1.3.11"  height="3.43" id="connector5"/>
            <rect width="2.792" x="48.433" y="91.347" fill="none" gorn="0.1.3.12"  height="3.43" id="connector4"/>
            <rect width="2.791" x="41.268" y="91.142" fill="none" gorn="0.1.3.13"  height="3.43" id="connector3"/>
            <rect width="2.791" x="34.214" y="91.142" fill="none" gorn="0.1.3.14"  height="3.43" id="connector2"/>
            <rect width="2.791" x="27.16" y="91.142" fill="none" gorn="0.1.3.15"  height="3.43" id="connector1"/>
        </g>
    </g>
</svg>
